<svg width="367" height="379" viewBox="0 0 367 379" fill="none" xmlns="http://www.w3.org/2000/svg">
<path d="M164.147 87.2651L164 87.2351L163.853 87.2651C161.476 87.7401 159.233 87.4751 157.593 86.1651C155.964 84.8601 154.75 82.3731 154.75 78.0001C154.75 73.5271 155.758 71.7101 157.085 71.0461C157.78 70.6991 158.678 70.5981 159.82 70.7291C160.961 70.8611 162.278 71.2171 163.763 71.7121L164.023 71.7981L164.278 71.6961C166.76 70.7041 168.991 70.3231 170.558 71.0551C172.028 71.7401 173.25 73.5931 173.25 78.0001C173.25 82.3741 172.037 84.8601 170.407 86.1641C168.767 87.4761 166.524 87.7411 164.147 87.2651Z" stroke="black" stroke-width="1.5"/>
<path d="M164 71.5C164 69 163 68 161 68" stroke="black" stroke-width="1.5" stroke-linecap="round" stroke-linejoin="round"/>
<circle cx="152.114" cy="226.114" r="152.114" fill="#5B9CF9"/>
<rect x="75" y="9" width="292" height="303" rx="26.2982" fill="white"/>
<path d="M156.259 109.067L149.907 100.109L127.835 106.816L127.541 117.794L115.754 121.376L118.307 60.1073L131.835 55.9962L168.126 105.461L156.259 109.067ZM128.214 95.5529L143.404 90.9369L128.933 70.6187L128.214 95.5529Z" fill="black"/>
<path d="M323.439 147.775C327.274 152.196 328.225 157.193 326.293 162.766C324.687 167.401 321.728 170.635 317.418 172.466C313.108 174.297 308.557 174.383 303.765 172.722L280.562 164.679L299.518 109.992L321.081 117.466C325.768 119.091 329.195 121.912 331.361 125.93C333.597 129.914 333.939 134.145 332.386 138.625C330.816 143.156 327.833 146.206 323.439 147.775ZM317.587 127.544L306.806 123.807L302.636 135.838L313.417 139.575C315.083 140.153 316.662 140.058 318.153 139.292C319.696 138.543 320.766 137.309 321.361 135.591C321.957 133.872 321.907 132.25 321.21 130.725C320.514 129.2 319.306 128.14 317.587 127.544ZM307.258 162.644C309.081 163.276 310.799 163.2 312.412 162.417C314.044 161.583 315.184 160.228 315.834 158.353C316.466 156.53 316.391 154.812 315.608 153.199C314.843 151.534 313.549 150.385 311.727 149.753L299.305 145.447L294.836 158.338L307.258 162.644Z" fill="black"/>
<path d="M282.202 268.113L269.937 263.861L265.486 242.366L248.687 256.495L236.499 252.271L262.94 230.019L256.315 197.881L268.502 202.106L272.581 221.897L288.034 208.876L300.221 213.101L275.154 234.166L282.202 268.113Z" fill="black"/>
<path d="M167.037 196.623L164.839 237.064L174.814 257.313L164.653 262.319L154.677 242.07L121.347 219.132L132.918 213.432L154.862 229.536L155.466 202.323L167.037 196.623Z" fill="black"/>
<path d="M258.604 81.6248L280.633 70.772L285.457 80.5627L250.373 97.8468L246.354 89.6878L251.202 45.0834L230.137 55.4611L225.314 45.6704L259.433 28.8614L263.416 36.9462L258.604 81.6248Z" fill="black"/>
<path d="M205.023 178.144C197.033 181.609 189.282 181.817 181.77 178.767C174.258 175.716 168.813 170.297 165.435 162.509C162.034 154.67 161.798 146.992 164.726 139.473C167.631 131.904 173.079 126.386 181.069 122.92C185.873 120.836 190.792 120.055 195.825 120.576C200.886 121.024 205.388 122.676 209.331 125.533L202.574 134.682C200.229 132.876 197.557 131.841 194.559 131.58C191.54 131.267 188.513 131.769 185.478 133.085C180.32 135.322 176.85 138.75 175.068 143.369C173.336 147.965 173.589 152.843 175.827 158.001C178.042 163.109 181.42 166.601 185.959 168.477C190.549 170.332 195.423 170.14 200.581 167.903C203.615 166.587 206.061 164.745 207.918 162.377C209.804 159.937 210.874 157.279 211.129 154.405L222.427 155.723C221.818 160.554 219.985 164.984 216.926 169.015C213.846 172.995 209.878 176.038 205.023 178.144Z" fill="black"/>
</svg>
