<svg width="267" height="84" viewBox="0 0 267 84" fill="none" xmlns="http://www.w3.org/2000/svg">
<g opacity="0.1">
<path d="M242.113 83.3772C255.593 83.3772 266.522 82.2453 266.522 80.849C266.522 79.4527 255.593 78.3208 242.113 78.3208C228.632 78.3208 217.704 79.4527 217.704 80.849C217.704 82.2453 228.632 83.3772 242.113 83.3772Z" fill="#112570"/>
</g>
<path d="M259.384 61.6126C259.384 61.6126 261.368 61.6165 261.518 62.0231C261.668 62.4297 261.518 64.9953 261.518 64.9953C261.518 64.9953 263.748 64.1633 264.233 64.9953C264.719 65.8275 264.996 68.7398 264.58 68.8785C264.164 69.0171 261.252 68.6011 259.795 66.7289C258.339 64.8566 259.384 61.6126 259.384 61.6126Z" fill="#FFD8CC"/>
<path d="M264.363 69.2991C263.352 69.2991 260.828 68.7118 259.478 66.9764C257.909 64.9592 258.956 61.6299 259.001 61.4892C259.054 61.3227 259.21 61.2097 259.384 61.2097C259.385 61.2097 259.385 61.2097 259.385 61.2097C261.65 61.2141 261.835 61.718 261.897 61.8836C262.026 62.2347 261.994 63.524 261.952 64.4326C262.765 64.2066 264.11 63.983 264.582 64.7924C265.055 65.6022 265.357 68.1198 265.073 68.8742C264.979 69.1247 264.822 69.2228 264.708 69.2609C264.634 69.2857 264.516 69.2991 264.363 69.2991ZM259.69 62.0214C259.489 62.8197 259.044 65.1057 260.114 66.4815C261.328 68.0419 263.699 68.5116 264.346 68.5037C264.471 67.9365 264.269 65.8558 263.886 65.1985C263.701 64.8821 262.564 65.0366 261.659 65.3731C261.532 65.4208 261.388 65.4003 261.279 65.3195C261.17 65.2386 261.108 65.1078 261.116 64.972C261.18 63.8838 261.208 62.5841 261.152 62.2209C260.95 62.1257 260.336 62.0432 259.69 62.0214Z" fill="#112570"/>
<path d="M224.48 8.03368C224.48 8.03368 227.464 4.46006 232.82 2.22377C238.177 -0.0124973 240.205 0.195531 239.165 6.33226C239.165 6.33226 249.202 2.79583 250.295 5.70818C251.387 8.62052 249.567 13.6651 249.567 13.6651C249.567 13.6651 258.46 15.6414 258.512 18.1377C258.564 20.634 253.675 28.6429 253.675 28.6429C253.675 28.6429 258.616 31.2433 258.928 33.6355C259.24 36.0278 253.311 39.7723 253.311 39.7723C253.311 39.7723 256.847 41.9046 256.327 43.6728C255.807 45.441 248.37 48.1973 248.37 48.1973C248.37 48.1973 243.118 51.1097 240.205 49.0294C237.293 46.9491 239.579 19.2818 235.03 14.4452C230.48 9.60867 224.48 8.03368 224.48 8.03368Z" fill="#FFD8CC"/>
<g opacity="0.6">
<path d="M225.125 7.58666C225.125 7.58666 231.504 3.66255 234.728 2.51839C237.953 1.37426 239.215 2.15446 239.215 2.15446C239.215 2.15446 239.028 0.676375 236.531 0.921318C234.035 1.16626 227.205 4.61128 225.125 7.58666Z" fill="white"/>
</g>
<g opacity="0.6">
<path d="M239.114 6.71368C239.114 6.71368 240.337 6.71368 241.711 6.45366C243.084 6.19363 247.475 4.93857 248.978 5.6389C250.481 6.3392 250.637 8.36222 250.637 8.36222C250.637 8.36222 250.953 5.68919 249.697 5.00528C248.44 4.3214 245.979 4.65322 244.271 4.93802C242.563 5.22281 239.2 6.22827 239.114 6.71368Z" fill="white"/>
</g>
<g opacity="0.6">
<path d="M249.29 13.8905C249.29 13.8905 250.053 14.6533 251.596 15.1907C253.139 15.7281 257.559 17.3229 257.906 18.2591C258.252 19.1952 257.906 20.062 257.906 20.062C257.906 20.062 258.873 18.7271 258.06 17.3403C257.247 15.9534 252.583 14.4834 252.51 14.4608C252.437 14.4383 249.769 13.7117 249.769 13.7117L249.29 13.8905Z" fill="white"/>
</g>
<g opacity="0.2">
<path d="M228.037 7.75375C228.037 7.75375 235.283 6.0202 237.433 3.7666C237.433 3.7666 238.431 3.83595 238.105 5.76018C237.779 7.6844 237.651 8.87522 238.547 9.28526C239.444 9.6953 247.071 10.5274 249.29 7.96178C249.29 7.96178 249.845 9.03658 248.666 12.0183C247.487 15 247.409 15.2074 247.661 16.2828C247.912 17.3582 253.208 20.0619 256.675 18.9525C256.675 18.9525 256.259 21.1714 254.213 24.8465C252.168 28.5216 251.682 30.1511 252.757 32.4047C253.832 34.6583 257.195 35.2131 257.195 35.2131C257.195 35.2131 251.773 38.7842 251.779 39.859C251.786 40.9338 255.08 42.2859 254.803 43.5688C254.525 44.8516 245.338 48.0066 245.338 48.0066L241.424 48.4382C241.424 48.4382 239.105 48.8734 238.997 45.1809L238.105 30.2236C238.105 30.2236 237.535 20.7757 236.253 16.6744C234.971 12.573 227.841 9.32624 227.841 9.32624L225.676 8.42186L228.037 7.75375Z" fill="#112570"/>
</g>
<path d="M242.86 50.1834C241.831 50.1834 240.819 49.9622 239.972 49.3572C238.582 48.3648 238.295 43.3576 237.94 35.2699C237.589 27.2593 237.153 17.2897 234.737 14.7213C230.318 10.0234 224.438 8.43886 224.379 8.42345C224.245 8.38837 224.139 8.2876 224.097 8.15623C224.055 8.02486 224.083 7.88116 224.172 7.77527C224.296 7.62627 227.28 4.10014 232.666 1.85173C235.547 0.64921 237.708 0.0416864 238.895 0.985176C239.788 1.69471 240.032 3.17354 239.666 5.74058C240.588 5.44304 242.391 4.89663 244.243 4.53251C247.977 3.79886 250.14 4.14661 250.673 5.56658C251.626 8.10989 250.51 12.0685 250.09 13.3746C250.855 13.5611 252.512 13.9915 254.157 14.5861C257.333 15.7343 258.89 16.8933 258.915 18.1292C258.963 20.4308 255.203 26.8755 254.237 28.4923C255.431 29.1716 259.043 31.3945 259.328 33.5833C259.617 35.7962 255.584 38.738 254.049 39.7714C255.096 40.494 257.189 42.1749 256.715 43.7865C256.169 45.6407 249.875 48.0685 248.539 48.5649C248.202 48.7481 245.48 50.1834 242.86 50.1834ZM225.213 7.83309C226.892 8.37892 231.561 10.1682 235.324 14.169C237.945 16.9554 238.37 26.6666 238.746 35.2347C239.018 41.4548 239.3 47.8869 240.44 48.7013C243.11 50.6086 248.125 47.8725 248.176 47.8447C248.193 47.8349 248.212 47.8263 248.231 47.8194C251.033 46.7805 255.604 44.7053 255.941 43.559C256.294 42.3591 253.952 40.6289 253.104 40.1174C252.984 40.0452 252.91 39.9162 252.909 39.7765C252.907 39.6367 252.978 39.5062 253.096 39.4315C255.304 38.0363 258.732 35.2431 258.529 33.6876C258.295 31.8971 254.811 29.6964 253.488 28.9995C253.39 28.9477 253.317 28.8573 253.287 28.7501C253.258 28.6427 253.274 28.5279 253.332 28.433C254.674 26.2331 258.15 20.0967 258.109 18.146C258.076 16.5588 252.799 14.7965 249.48 14.0585C249.367 14.0334 249.27 13.9608 249.214 13.8594C249.158 13.7579 249.149 13.6373 249.188 13.5284C249.206 13.4793 250.945 8.58808 249.918 5.84957C249.223 3.99761 243.037 5.3958 239.3 6.71231C239.165 6.75999 239.016 6.73241 238.906 6.64043C238.797 6.5485 238.745 6.40559 238.769 6.26486C239.206 3.68482 239.083 2.16424 238.394 1.61626C237.462 0.875229 235.132 1.69553 232.976 2.59568C228.905 4.29553 226.204 6.80912 225.213 7.83309Z" fill="#112570"/>
<path d="M259.38 63.3996C259.38 63.3996 261.286 65.3766 263.123 66.5901C264.961 67.8036 266.556 68.2197 265.932 70.3346C265.307 72.4495 260.176 71.8948 258.235 70.3346C256.293 68.7744 256.504 64.0922 259.38 63.3996Z" fill="#5A9DFD"/>
<g opacity="0.2">
<path d="M259.067 68.0566C258.131 67.3042 257.697 65.8263 257.819 64.4195C256.523 66.0749 256.738 69.1316 258.235 70.3344C260.177 71.8945 265.308 72.4493 265.932 70.3344C266.097 69.7762 266.106 69.3371 265.998 68.9697C264.342 69.9301 260.648 69.3267 259.067 68.0566Z" fill="#112570"/>
</g>
<path d="M262.939 72.1203C261.167 72.1203 259.11 71.5553 257.982 70.6488C256.832 69.7245 256.291 67.7412 256.696 65.9328C257.042 64.387 257.986 63.3208 259.286 63.0078C259.425 62.9747 259.572 63.0172 259.671 63.1199C259.69 63.1394 261.568 65.0797 263.346 66.2539C263.664 66.4642 263.974 66.6495 264.274 66.8288C265.694 67.6768 266.92 68.4093 266.318 70.4486C266.121 71.1189 265.56 71.6161 264.696 71.8865C264.187 72.0459 263.581 72.1203 262.939 72.1203ZM259.262 63.8537C258.381 64.1558 257.739 64.965 257.483 66.1089C257.141 67.6333 257.564 69.2784 258.487 70.0204C259.827 71.0976 262.784 71.6406 264.455 71.1172C265.059 70.9282 265.425 70.6266 265.545 70.2205C265.953 68.8389 265.324 68.3944 263.861 67.5208C263.553 67.337 263.235 67.1469 262.901 66.9266C261.347 65.9001 259.775 64.3694 259.262 63.8537Z" fill="#112570"/>
<path d="M241.766 45.1809V47.327C241.766 47.327 249.047 46.065 255.08 51.6297C261.112 57.1944 259.136 67.0756 259.136 67.0756C259.136 67.0756 259.032 78.5473 257.472 79.9212C255.912 81.295 252.375 81.1693 251.699 79.5572C251.023 77.9449 250.606 74.9286 250.606 74.9286L247.175 75.2406C247.175 75.2406 247.383 79.8692 244.574 80.2852C241.766 80.7013 239.582 79.8172 238.958 78.205C238.334 76.5928 238.126 75.4487 238.126 75.4487L232.613 75.3967C232.613 75.3967 231.365 79.5052 229.181 79.5572C226.996 79.6092 224.864 79.8172 223.72 76.9568C222.576 74.0965 220.86 64.4753 221.744 58.0266C222.42 53.606 225.488 50.2776 225.488 50.2776L225.539 47.3198C225.538 47.3197 233.913 43.6727 241.766 45.1809Z" fill="#5A9DFD"/>
<g opacity="0.6">
<path d="M255.079 51.6297C249.047 46.065 241.766 47.3269 241.766 47.3269V45.1809C241.766 45.1809 241.296 46.3982 241.456 46.4291V48.5751C241.456 48.5751 248.737 47.3132 254.77 52.8779C260.802 58.4426 258.826 68.3238 258.826 68.3238C258.826 68.3238 258.764 75.1062 258.027 78.8653C259.058 75.6592 259.136 67.0756 259.136 67.0756C259.136 67.0756 261.112 57.1944 255.079 51.6297Z" fill="white"/>
</g>
<g opacity="0.6">
<path d="M225.195 50.6221C224.447 51.5361 222.485 54.1869 221.831 57.5403C222.889 54.0123 225.18 51.5258 225.18 51.5258L225.195 50.6221Z" fill="white"/>
</g>
<g opacity="0.6">
<path d="M246.75 78.1987C246.96 77.6073 247.069 76.9859 247.124 76.4651L246.866 76.4886C246.866 76.4886 246.9 77.2587 246.75 78.1987Z" fill="white"/>
</g>
<path d="M227.054 72.8119C227.054 72.8119 223.876 71.2362 223.738 64.5101C223.599 57.7839 226.234 56.2931 230.984 56.8131C235.734 57.3332 235.646 62.0831 236.175 64.0593C236.705 66.0355 237.408 71.3264 237.408 71.3264L238.041 74.9604L237.983 75.4292H233.012C233.012 75.4292 231.455 75.0769 230 74.4476C228.545 73.8183 227.054 72.8119 227.054 72.8119Z" fill="#FFD8CC"/>
<g opacity="0.2">
<path d="M241.767 46.5158C241.767 46.5158 235.179 49.3242 232.197 49.7055C229.216 50.0869 225.516 48.7008 225.516 48.7008L225.367 47.3173C225.367 47.3173 228.343 45.8897 233.061 45.2146C237.779 44.5396 241.767 45.181 241.767 45.181V46.5158Z" fill="#112570"/>
</g>
<g opacity="0.2">
<path d="M223.918 77.4033C223.918 77.4033 225.306 78.76 227.464 77.4033C229.622 76.0467 228.238 73.6388 228.238 73.6388C228.238 73.6388 226.892 73.3944 225.488 71.2881C224.083 69.1819 222.226 70.9062 222.548 72.4515C222.548 72.4515 221.206 66.3753 221.518 60.8314L221.601 59.3423L221.743 58.0265C221.743 58.0265 222.263 65.2554 227.568 69.0518C232.873 72.8483 237.197 70.1244 237.197 70.1244L238.368 76.4436C238.368 76.4436 240.621 79.0371 243.464 77.5809C246.307 76.1247 245.406 71.4442 246.03 69.884C246.654 68.3238 252.587 69.6226 256.015 66.6075C259.443 63.5926 258.904 58.4754 258.904 58.4754C258.904 58.4754 259.823 62.3979 259.115 68.1692C259.115 68.1692 258.729 77.9784 257.645 79.7169C256.561 81.4553 252.653 80.9247 251.985 79.9982C251.985 79.9982 255.045 80.0252 255.825 78.3783C256.605 76.7314 255.745 73.4203 254.719 73.3684C254.719 73.3684 253.44 74.1695 251.815 74.6357C250.191 75.1019 247.434 75.2233 247.434 75.2233L247.192 75.3793C247.192 75.3793 247.087 79.4677 245.059 80.1625C243.031 80.8572 240.967 80.2146 239.893 79.4265C238.819 78.6383 238.242 75.9698 238.242 75.9698L237.882 75.4486L233.219 75.3966L232.508 75.4486C232.508 75.4486 231.47 79.1364 229.536 79.5114C227.603 79.8865 225.417 79.0739 225.417 79.0739C225.417 79.0739 224.135 78.5953 223.918 77.4033Z" fill="#112570"/>
</g>
<path d="M254.528 81.2655C254.101 81.2656 253.691 81.221 253.327 81.1373C252.326 80.9073 251.616 80.4014 251.327 79.713C250.776 78.3987 250.4 76.2383 250.263 75.3644L247.581 75.6084C247.563 76.7956 247.285 80.2912 244.633 80.684C241.675 81.1218 239.3 80.2062 238.582 78.3506C238.141 77.2128 237.904 76.3077 237.798 75.8486L232.903 75.8024C232.557 76.7879 231.295 79.9099 229.19 79.96L228.869 79.9685C226.74 80.0266 224.538 80.087 223.345 77.1066C222.163 74.1502 220.463 64.3978 221.344 57.9719C221.969 53.8861 224.528 50.7629 225.087 50.1212L225.135 47.3129C225.138 47.1551 225.233 47.0133 225.377 46.9503C225.724 46.7993 233.957 43.2705 241.842 44.7852C242.032 44.8215 242.169 44.9877 242.169 45.1809V46.8677C243.91 46.6837 250.057 46.4491 255.353 51.3335C257.895 53.6786 259.423 57.1617 259.772 61.4065C260.019 64.4157 259.603 66.7767 259.539 67.1162C259.519 69.1451 259.342 78.8117 257.738 80.2237C256.911 80.9522 255.66 81.2655 254.528 81.2655ZM250.606 74.5256C250.805 74.5256 250.977 74.6724 251.005 74.8733C251.009 74.903 251.423 77.8568 252.071 79.4013C252.256 79.8439 252.767 80.1813 253.508 80.3517C254.803 80.6494 256.393 80.3342 257.205 79.6186C258.243 78.7047 258.693 71.4378 258.733 67.072C258.733 67.0468 258.736 67.0215 258.741 66.9968C258.76 66.9001 260.599 57.2691 254.806 51.926C248.999 46.5693 241.905 47.7119 241.834 47.7242C241.717 47.7442 241.597 47.7118 241.506 47.635C241.415 47.5585 241.363 47.4458 241.363 47.327V45.517C234.547 44.3367 227.325 47.0345 225.937 47.5915L225.891 50.2844C225.889 50.3831 225.851 50.478 225.784 50.5506C225.754 50.5831 222.79 53.8466 222.142 58.0874C221.279 64.3784 222.938 73.9187 224.094 76.8072C225.077 79.2659 226.824 79.2179 228.847 79.1628L229.171 79.1543C230.723 79.1173 231.903 76.3447 232.227 75.2794C232.279 75.1095 232.435 74.9936 232.613 74.9936C232.614 74.9936 232.615 74.9936 232.616 74.9936L238.129 75.0457C238.322 75.0474 238.487 75.1864 238.522 75.3764C238.524 75.3875 238.732 76.5074 239.333 78.0596C239.902 79.5274 241.984 80.2617 244.515 79.8866C246.93 79.5289 246.774 75.3012 246.772 75.2585C246.762 75.0435 246.924 74.8587 247.138 74.8393L250.569 74.5272C250.581 74.5261 250.594 74.5256 250.606 74.5256Z" fill="#112570"/>
<path d="M242.169 47.327C242.197 47.8854 242.13 48.4423 242.046 48.9939C242.019 49.1791 241.964 49.3643 241.799 49.5495C241.783 49.5681 241.754 49.5697 241.736 49.5531C241.433 49.21 241.478 48.838 241.41 48.4383C241.368 48.0694 241.342 47.6979 241.362 47.327C241.402 46.8256 242.13 46.8281 242.169 47.327Z" fill="#112570"/>
<path d="M250.605 75.3316C250.41 75.3316 250.238 75.189 250.207 74.9897C250.174 74.7698 250.324 74.564 250.544 74.5301C250.616 74.519 257.707 73.3447 258.738 67.0107C258.774 66.7909 258.981 66.641 259.201 66.6777C259.42 66.7134 259.57 66.9206 259.534 67.1403C259.067 70.0085 257.381 72.3352 254.659 73.8689C252.623 75.0164 250.746 75.3147 250.667 75.3267C250.646 75.33 250.626 75.3316 250.605 75.3316Z" fill="#112570"/>
<path d="M246.772 75.2405C246.744 74.5233 246.81 73.8072 246.895 73.0953C246.921 72.8569 246.976 72.6186 247.141 72.3802C247.157 72.357 247.193 72.357 247.208 72.3802C247.512 72.8345 247.462 73.3111 247.531 73.8104C247.572 74.2859 247.598 74.7634 247.578 75.2405C247.543 75.7485 246.807 75.7463 246.772 75.2405Z" fill="#112570"/>
<path d="M237.729 75.5179C237.509 74.377 237.336 73.2281 237.177 72.0773C237.044 70.9119 236.787 69.7767 236.896 68.5896C236.899 68.5566 236.949 68.5462 236.963 68.5781C237.225 69.1218 237.379 69.6845 237.504 70.252C237.887 71.9522 238.251 73.6576 238.523 75.3795C238.591 75.8956 237.841 76.0283 237.729 75.5179Z" fill="#112570"/>
<path d="M232.529 75.7908C229.84 75.1575 226.603 73.6392 225.253 71.108C225.069 70.722 224.934 70.3132 224.884 69.8943C224.88 69.8593 224.93 69.8404 224.948 69.8735C225.736 71.2814 226.861 72.4353 228.262 73.2343C229.292 73.8421 230.414 74.3049 231.552 74.6767C231.935 74.7992 232.333 74.9133 232.708 75.0052C233.211 75.1399 233.045 75.8867 232.529 75.7908Z" fill="#112570"/>
<path d="M225.124 47.3132C225.124 47.3132 210.77 47.3317 207.858 38.6455C204.612 28.9641 208.066 24.8465 210.839 21.0327C213.613 17.2189 216.317 6.26287 231.642 7.71905C246.966 9.17522 250.364 20.4779 251.612 29.5617C252.86 38.6455 247.382 47.7293 225.124 47.3132Z" fill="#5A9DFD"/>
<g opacity="0.6">
<path d="M231.643 7.71905C216.318 6.26287 213.614 17.2189 210.84 21.0327C208.196 24.6683 204.934 28.58 207.447 37.3246C205.579 29.4465 208.653 25.7387 211.168 22.2808C212.853 19.9639 214.513 15.0114 218.992 11.8069C219.35 12.5542 221.838 12.4929 224.661 11.6511C227.305 10.8624 229.329 9.66123 229.483 8.83752C230.274 8.84378 231.101 8.88452 231.971 8.96716C243.908 10.1015 248.608 17.2108 250.692 24.5918C248.786 16.7821 244.252 8.91723 231.643 7.71905Z" fill="white"/>
</g>
<g opacity="0.2">
<path d="M251.611 29.5522C250.946 24.7134 249.67 19.2453 246.308 14.971C248.112 18.5363 248.954 22.5146 249.452 26.14C250.7 35.2238 245.222 44.3076 222.964 43.8915C222.964 43.8915 212.903 43.9032 207.918 38.8092C210.963 47.3204 225.122 47.3037 225.122 47.3037C247.381 47.7197 252.859 38.636 251.611 29.5522Z" fill="#112570"/>
</g>
<path d="M216.213 35.7331C216.213 35.7331 221.344 34.7623 223.771 32.2313C223.771 32.2313 225.227 37.1546 221.067 38.9228C216.906 40.691 216.178 36.2878 216.213 35.7331Z" fill="#112570"/>
<path d="M219.174 39.3369C219.174 39.3369 219.174 35.1438 224.019 34.069C224.019 34.069 224.284 39.2309 219.174 39.3369Z" fill="#F73753"/>
<path d="M226.588 47.7302C226.105 47.7302 225.617 47.7255 225.12 47.7163C224.919 47.7163 221.405 47.6999 217.477 46.6254C212.17 45.1737 208.711 42.4585 207.476 38.7736C204.296 29.289 207.418 25.025 210.172 21.2629C210.287 21.1064 210.401 20.9508 210.514 20.7956C210.971 20.1666 211.43 19.3315 211.961 18.3645C213.291 15.9404 214.948 12.9236 217.933 10.6006C221.469 7.8486 225.966 6.77509 231.68 7.31777C238.617 7.97687 243.85 10.7459 247.235 15.5477C250.418 20.0616 251.486 25.6762 252.012 29.5069C252.626 33.9769 251.556 37.9091 248.918 40.8781C244.876 45.4273 237.366 47.73 226.588 47.7302ZM225.124 46.9103C225.127 46.9103 225.129 46.9103 225.132 46.9103C236.455 47.1221 244.255 44.9123 248.315 40.3428C250.792 37.5552 251.794 33.8461 251.213 29.6166C249.941 20.3549 246.562 9.54167 231.604 8.12035C219.155 6.93681 215.25 14.0476 212.667 18.7526C212.123 19.7436 211.653 20.5994 211.166 21.2698C211.052 21.4257 210.938 21.582 210.823 21.7392C208.184 25.3434 205.193 29.4285 208.24 38.5174C211.024 46.8204 224.964 46.9103 225.123 46.9103C225.124 46.9101 225.124 46.9102 225.124 46.9103Z" fill="#112570"/>
<path d="M233.797 27.7623C236.176 27.7623 238.104 25.3237 238.104 22.3156C238.104 19.3074 236.176 16.8688 233.797 16.8688C231.418 16.8688 229.489 19.3074 229.489 22.3156C229.489 25.3237 231.418 27.7623 233.797 27.7623Z" fill="#112570"/>
<path d="M232.46 23.27C233.589 23.27 234.505 22.171 234.505 20.8154C234.505 19.4598 233.589 18.3608 232.46 18.3608C231.33 18.3608 230.414 19.4598 230.414 20.8154C230.414 22.171 231.33 23.27 232.46 23.27Z" fill="white"/>
<g opacity="0.6">
<path d="M235.03 25.6085C235.556 25.6085 235.983 25.182 235.983 24.6559C235.983 24.1298 235.556 23.7032 235.03 23.7032C234.504 23.7032 234.078 24.1298 234.078 24.6559C234.078 25.182 234.504 25.6085 235.03 25.6085Z" fill="white"/>
</g>
<path d="M217.062 27.9669C219.361 27.9669 221.224 25.6106 221.224 22.7039C221.224 19.7972 219.361 17.4409 217.062 17.4409C214.763 17.4409 212.9 19.7972 212.9 22.7039C212.9 25.6106 214.763 27.9669 217.062 27.9669Z" fill="#112570"/>
<path d="M215.769 23.6261C216.861 23.6261 217.746 22.5642 217.746 21.2543C217.746 19.9444 216.861 18.8825 215.769 18.8825C214.678 18.8825 213.793 19.9444 213.793 21.2543C213.793 22.5642 214.678 23.6261 215.769 23.6261Z" fill="white"/>
<g opacity="0.6">
<path d="M219.15 25.1804C219.267 24.6856 218.96 24.1898 218.465 24.073C217.971 23.9562 217.475 24.2626 217.358 24.7573C217.241 25.2521 217.548 25.7478 218.042 25.8647C218.537 25.9815 219.033 25.6751 219.15 25.1804Z" fill="white"/>
</g>
<path d="M219.267 39.7446C218.609 39.7446 218.021 39.5626 217.507 39.1987C216.113 38.2129 215.781 36.192 215.811 35.708C215.823 35.5242 215.958 35.3715 216.139 35.3371C216.189 35.3277 221.173 34.3594 223.481 31.9525C223.58 31.8488 223.728 31.806 223.867 31.8398C224.007 31.8737 224.118 31.9794 224.158 32.1171C224.174 32.1698 225.665 37.4069 221.225 39.2939C220.518 39.5944 219.864 39.7446 219.267 39.7446ZM216.64 36.0557C216.731 36.6627 217.088 37.915 217.972 38.5406C218.711 39.0629 219.699 39.0667 220.91 38.5519C223.852 37.3018 223.745 34.3448 223.529 33.0116C221.305 34.9014 217.768 35.805 216.64 36.0557Z" fill="#112570"/>
<path d="M216.214 36.1362C215.624 36.1476 215.058 36.004 214.555 35.6916C214.388 35.5869 214.223 35.4164 214.213 35.1668C214.212 35.1415 214.233 35.1204 214.258 35.1207C214.674 35.1156 214.88 35.2293 215.254 35.2585C215.565 35.2927 215.929 35.3043 216.233 35.3319C216.73 35.3857 216.71 36.1078 216.214 36.1362Z" fill="#112570"/>
<path d="M219.04 30.9702C218.612 30.3244 219.407 29.3323 220.112 29.7049C220.199 29.7534 220.216 29.8783 220.145 29.9485C220.038 30.0535 219.944 30.1596 219.901 30.2355C219.733 30.5223 219.605 30.7792 219.308 30.9964C219.229 31.0703 219.099 31.0662 219.04 30.9702Z" fill="#112570"/>
<path d="M214.563 30.9864C214.282 30.7583 214.182 30.5575 213.945 30.3295C213.852 30.2375 213.726 30.1754 213.613 30.0798C213.382 29.8129 213.934 29.6591 214.142 29.6929C214.339 29.7056 214.542 29.8057 214.683 29.9467C214.966 30.2276 215.053 30.6371 214.832 30.98C214.766 31.0774 214.638 31.0663 214.563 30.9864Z" fill="#112570"/>
<path d="M237.358 0.523174C237.977 0.523229 238.492 0.664736 238.896 0.985265C239.788 1.6948 240.032 3.17371 239.667 5.74067C240.588 5.44313 242.391 4.89672 244.244 4.5326C245.512 4.28329 246.599 4.15884 247.503 4.15884C249.259 4.1589 250.321 4.62903 250.673 5.56667C251.627 8.10998 250.51 12.0686 250.091 13.3747C250.855 13.5612 252.513 13.9916 254.158 14.5862C257.333 15.7344 258.89 16.8933 258.916 18.1293C258.964 20.4309 255.204 26.8756 254.237 28.4924C255.432 29.1717 259.043 31.3946 259.328 33.5834C259.617 35.7963 255.585 38.738 254.049 39.7714C255.096 40.4941 257.189 42.1749 256.715 43.7865C256.289 45.2342 252.359 47.0315 250.02 47.9862C251.765 48.6689 253.605 49.721 255.353 51.3335C257.857 53.6429 259.374 57.0579 259.753 61.2153C261.669 61.2709 261.838 61.7276 261.896 61.8838C262.025 62.2347 261.993 63.524 261.951 64.4325C262.33 64.3271 262.824 64.2223 263.292 64.2223C263.828 64.2223 264.329 64.36 264.581 64.7923C264.869 65.2848 265.093 66.4084 265.161 67.3833C266.143 68.0596 266.789 68.8551 266.319 70.4488C266.121 71.1189 265.56 71.6161 264.697 71.8864C264.187 72.046 263.582 72.1204 262.939 72.1204C261.767 72.1204 260.473 71.8721 259.403 71.4425C259.215 74.959 258.774 79.312 257.739 80.2237C256.911 80.9523 255.661 81.2656 254.529 81.2656C254.102 81.2656 253.692 81.2211 253.328 81.1374C252.327 80.9074 251.617 80.4015 251.328 79.7131C250.777 78.3987 250.401 76.2383 250.264 75.3644L247.582 75.6084C247.564 76.7956 247.286 80.2911 244.634 80.684C244.143 80.7567 243.668 80.7921 243.214 80.7921C240.934 80.7921 239.181 79.8982 238.582 78.3505C238.142 77.2129 237.905 76.3077 237.799 75.8487L232.903 75.8025C232.557 76.7878 231.296 79.91 229.191 79.9602L228.87 79.9685C228.574 79.9766 228.276 79.9848 227.98 79.9848C226.147 79.9848 224.372 79.6724 223.346 77.1065C222.164 74.15 220.464 64.3975 221.345 57.9718C221.97 53.8861 224.529 50.7629 225.088 50.1212L225.129 47.7165C225.126 47.7164 225.124 47.7164 225.121 47.7163C224.92 47.7163 221.405 47.6999 217.477 46.6254C212.17 45.1737 208.712 42.4586 207.476 38.7736C204.296 29.289 207.418 25.025 210.173 21.263C210.287 21.1065 210.401 20.9508 210.514 20.7957C210.972 20.1666 211.43 19.3315 211.961 18.3645C213.292 15.9404 214.948 12.9235 217.933 10.6006C219.774 9.16839 221.875 8.19186 224.272 7.66003C224.839 7.01664 227.753 3.90307 232.666 1.85171C234.568 1.05775 236.157 0.523174 237.358 0.523174ZM237.358 0C236.227 0 234.763 0.409438 232.465 1.36894C227.711 3.35373 224.769 6.33605 223.994 7.18665C221.607 7.73952 219.461 8.74879 217.612 10.1877C214.542 12.5769 212.857 15.6461 211.503 18.1122C210.98 19.0639 210.529 19.8855 210.091 20.488C209.978 20.6426 209.865 20.7978 209.751 20.9539C208.389 22.8132 206.846 24.9205 206.094 27.7373C205.237 30.9421 205.527 34.6064 206.98 38.9399C208.274 42.7981 211.856 45.6302 217.339 47.1301C220.509 47.9972 223.435 48.1866 224.597 48.228L224.568 49.9244C223.831 50.803 221.436 53.9136 220.828 57.8927C220.827 57.8954 220.827 57.898 220.826 57.9007C219.934 64.4101 221.66 74.3002 222.86 77.3008C223.988 80.1194 225.987 80.508 227.98 80.508C228.283 80.508 228.589 80.4996 228.884 80.4915L229.204 80.4831C231.389 80.4311 232.705 77.792 233.267 76.3291L237.388 76.368C237.522 76.8804 237.747 77.6409 238.094 78.5394C238.767 80.2776 240.681 81.3153 243.214 81.3153C243.698 81.3153 244.201 81.277 244.711 81.2015C247.46 80.7942 247.991 77.6155 248.086 76.0878L249.827 75.9295C250.007 76.9814 250.359 78.7537 250.846 79.9154C251.201 80.7635 252.041 81.3785 253.211 81.6473C253.62 81.7411 254.063 81.7887 254.529 81.7887C255.943 81.7887 257.238 81.3615 258.085 80.6163C258.446 80.2977 258.977 79.5651 259.405 76.8927C259.609 75.618 259.771 74.0314 259.885 72.1687C260.86 72.4735 261.939 72.6436 262.939 72.6436C263.663 72.6436 264.307 72.5568 264.853 72.3856C265.891 72.0608 266.571 71.4422 266.82 70.5968C267.365 68.7509 266.582 67.7805 265.662 67.0986C265.577 66.1784 265.359 65.0868 265.033 64.5287C264.813 64.1503 264.331 63.6992 263.292 63.6992C263.047 63.6992 262.782 63.7236 262.499 63.772C262.547 62.1371 262.433 61.8278 262.387 61.7026C262.167 61.108 261.513 60.8036 260.228 60.7145C259.77 56.6284 258.212 53.259 255.708 50.9489C254.395 49.7377 252.933 48.7465 251.351 47.9925C252.298 47.5787 253.381 47.0694 254.342 46.5268C256.07 45.5516 256.983 44.7277 257.217 43.9341C257.692 42.317 256.21 40.7652 254.952 39.7845C257.141 38.2353 260.131 35.6919 259.847 33.5158C259.566 31.3597 256.621 29.3065 254.956 28.3066C256.509 25.673 259.485 20.3292 259.439 18.1184C259.407 16.6203 257.786 15.3416 254.335 14.0942C252.993 13.6091 251.653 13.2337 250.753 13.0015C251.283 11.1985 252.058 7.77017 251.163 5.38292C250.728 4.22361 249.497 3.63572 247.503 3.63564C246.568 3.63564 245.438 3.76473 244.143 4.0192C242.697 4.30339 241.281 4.69707 240.284 4.99941C240.512 2.7136 240.175 1.33367 239.221 0.575718C238.741 0.193719 238.114 5.49323e-05 237.358 0Z" fill="#112570"/>
<path d="M29.6993 59.6916V61.8243C29.6993 65.7736 28.4355 68.9726 25.9079 71.4213C23.3803 73.8699 20.1155 75.0942 16.1135 75.0942C11.8481 75.0942 8.30686 73.7119 5.48964 70.9473C2.69874 68.1564 1.3033 64.76 1.3033 60.7579C1.3033 56.7296 2.68558 53.3199 5.45014 50.529C8.24104 47.7381 11.6902 46.3427 15.7975 46.3427C18.3778 46.3427 20.7342 46.9351 22.8669 48.1199C24.9996 49.2784 26.6583 50.8318 27.8431 52.7802L23.1829 55.4658C22.5246 54.3336 21.5241 53.4121 20.1813 52.7012C18.8649 51.9903 17.3904 51.6349 15.758 51.6349C13.1251 51.6349 10.9529 52.5037 9.24155 54.2415C7.55648 55.9528 6.71394 58.125 6.71394 60.7579C6.71394 63.3645 7.56964 65.5235 9.28104 67.2349C11.0188 68.92 13.3094 69.7625 16.153 69.7625C18.2593 69.7625 19.997 69.3018 21.3661 68.3802C22.7616 67.4324 23.7094 66.1422 24.2097 64.5098H15.837V59.6916H29.6993ZM33.5759 46.8956H39.026V74.5413H33.5759V46.8956ZM71.2758 59.6916V61.8243C71.2758 65.7736 70.012 68.9726 67.4844 71.4213C64.9568 73.8699 61.692 75.0942 57.6899 75.0942C53.4246 75.0942 49.8833 73.7119 47.0661 70.9473C44.2752 68.1564 42.8798 64.76 42.8798 60.7579C42.8798 56.7296 44.262 53.3199 47.0266 50.529C49.8175 47.7381 53.2666 46.3427 57.374 46.3427C59.9542 46.3427 62.3107 46.9351 64.4434 48.1199C66.576 49.2784 68.2348 50.8318 69.4196 52.7802L64.7593 55.4658C64.1011 54.3336 63.1006 53.4121 61.7578 52.7012C60.4413 51.9903 58.9669 51.6349 57.3345 51.6349C54.7016 51.6349 52.5294 52.5037 50.818 54.2415C49.1329 55.9528 48.2904 58.125 48.2904 60.7579C48.2904 63.3645 49.1461 65.5235 50.8575 67.2349C52.5952 68.92 54.8859 69.7625 57.7294 69.7625C59.8358 69.7625 61.5735 69.3018 62.9426 68.3802C64.3381 67.4324 65.2859 66.1422 65.7862 64.5098H57.4135V59.6916H71.2758ZM102.285 59.6916V61.8243C102.285 65.7736 101.021 68.9726 98.4932 71.4213C95.9656 73.8699 92.7008 75.0942 88.6987 75.0942C84.4334 75.0942 80.8921 73.7119 78.0749 70.9473C75.284 68.1564 73.8886 64.76 73.8886 60.7579C73.8886 56.7296 75.2708 53.3199 78.0354 50.529C80.8263 47.7381 84.2754 46.3427 88.3828 46.3427C90.963 46.3427 93.3195 46.9351 95.4522 48.1199C97.5848 49.2784 99.2436 50.8318 100.428 52.7802L95.7681 55.4658C95.1099 54.3336 94.1094 53.4121 92.7666 52.7012C91.4501 51.9903 89.9757 51.6349 88.3433 51.6349C85.7104 51.6349 83.5382 52.5037 81.8268 54.2415C80.1417 55.9528 79.2992 58.125 79.2992 60.7579C79.2992 63.3645 80.1549 65.5235 81.8663 67.2349C83.604 68.92 85.8947 69.7625 88.7382 69.7625C90.8446 69.7625 92.5823 69.3018 93.9514 68.3802C95.3469 67.4324 96.2947 66.1422 96.795 64.5098H88.4223V59.6916H102.285ZM111.611 69.3281H122.156V74.5413H106.161V46.8956H111.611V69.3281ZM125.252 46.8956H130.703V74.5413H125.252V46.8956ZM159.082 70.9473C156.291 73.7119 152.895 75.0942 148.893 75.0942C144.89 75.0942 141.494 73.7119 138.703 70.9473C135.939 68.1564 134.556 64.7468 134.556 60.7184C134.556 56.6901 135.939 53.2936 138.703 50.529C141.494 47.7381 144.89 46.3427 148.893 46.3427C152.895 46.3427 156.291 47.7381 159.082 50.529C161.873 53.2936 163.268 56.6901 163.268 60.7184C163.268 64.7468 161.873 68.1564 159.082 70.9473ZM142.534 67.2349C144.245 68.92 146.365 69.7625 148.893 69.7625C151.42 69.7625 153.54 68.92 155.251 67.2349C156.962 65.5235 157.818 63.3514 157.818 60.7184C157.818 58.0855 156.962 55.9134 155.251 54.202C153.54 52.4906 151.42 51.6349 148.893 51.6349C146.365 51.6349 144.245 52.4906 142.534 54.202C140.823 55.9134 139.967 58.0855 139.967 60.7184C139.967 63.3514 140.823 65.5235 142.534 67.2349ZM170.188 74.0673C169.53 74.7256 168.74 75.0547 167.818 75.0547C166.897 75.0547 166.107 74.7256 165.449 74.0673C164.791 73.4091 164.461 72.6192 164.461 71.6977C164.461 70.7762 164.791 69.9863 165.449 69.3281C166.107 68.6698 166.897 68.3407 167.818 68.3407C168.74 68.3407 169.53 68.6698 170.188 69.3281C170.846 69.9863 171.175 70.7762 171.175 71.6977C171.175 72.6192 170.846 73.4091 170.188 74.0673ZM193.433 74.5413L191.774 69.565H180.756L179.097 74.5413H173.212L182.888 46.8956H189.642L199.357 74.5413H193.433ZM182.493 64.4703H190.076L186.285 53.1751L182.493 64.4703ZM202.042 46.8956H207.492V74.5413H202.042V46.8956Z" fill="black"/>
<ellipse cx="105.632" cy="80.7772" rx="94.3342" ry="2.82438" fill="#E8EAF1"/>
</svg>
