<svg width="672" height="672" viewBox="0 0 672 672" fill="none" xmlns="http://www.w3.org/2000/svg">
<g clip-path="url(#clip0_240_310)">
<g clip-path="url(#clip1_240_310)">
<path d="M672 0H0V672H672V0Z" fill="#FFF5CF"/>
<path d="M215.317 566.229C165.826 544.749 118.037 514.435 93.8546 467.462C69.672 420.491 69.633 361.169 98.994 317.046C128.355 272.922 188.168 248.155 240.098 263.319C254.75 267.598 269.46 274.816 284.547 272.324C301.009 269.604 313.201 255.875 320.863 241.519C328.525 227.164 333.213 211.29 342.57 197.908C360.516 172.242 394.189 159.369 426.177 160.983C458.166 162.598 488.337 177.104 513.18 196.666C562.608 235.588 593.296 295.921 595.016 357.554C596.735 419.187 565.28 476.978 522.271 522.479C442.592 606.774 290.541 598.876 215.317 566.229Z" fill="#FFEDBA"/>
<mask id="mask0_240_310" style="mask-type:luminance" maskUnits="userSpaceOnUse" x="0" y="0" width="672" height="672">
<path d="M672 0H0V672H672V0Z" fill="white"/>
</mask>
<g mask="url(#mask0_240_310)">
<path d="M463.296 241.009C463.296 241.009 607.498 241.009 609.667 240.034C609.543 235.101 607.178 230.265 603.358 227.139C599.539 224.013 594.331 222.651 589.469 223.507C589.913 212.364 581.79 201.463 570.985 198.701C560.181 195.939 547.823 201.604 542.863 211.593C540.057 208.832 535.834 207.598 531.982 208.413C528.132 209.227 524.769 212.066 523.32 215.725C516.219 206.542 502.924 202.732 492.036 206.76C481.148 210.788 473.535 222.333 474.119 233.927C472.274 231.761 468.805 231.203 466.372 232.68C463.942 234.157 462.84 237.493 463.296 241.009Z" fill="white"/>
<path d="M774.163 97.8486C774.163 97.8486 552.657 97.8486 551.985 97.0556C554.534 86.9246 561.79 78.0824 571.229 73.6055C580.668 69.1287 592.106 69.1045 601.564 73.5397C595.436 53.213 609.198 29.1594 629.826 24.1423C650.455 19.1251 673.726 34.1712 677.618 55.0408C686.524 48.9068 698.495 47.4929 708.583 51.3865C718.671 55.2787 726.59 64.3669 729.065 74.8931C734.757 70.0802 744.148 73.2574 748.4 79.3793C752.653 85.4999 753.182 93.3771 774.163 97.8486Z" fill="white"/>
<path d="M-89.5107 91.2482C-89.5107 91.2482 120.781 91.2482 121.7 91.3168C117.098 74.3488 96.7099 63.0135 79.1048 67.6355C76.863 45.563 53.261 28.9027 30.1953 29.7347C7.13093 30.5666 -13.5694 46.11 -24.1319 65.8278C-35.1392 57.62 -50.7699 55.5475 -63.6804 60.5862C-76.5895 65.6248 -86.2892 77.5811 -89.5107 91.2482Z" fill="white"/>
<path d="M201.836 272.184C201.836 272.184 50.1754 272.184 50.3219 271.389C51.7694 261.142 61.93 252.918 72.2533 253.637C74.4064 239.639 86.8921 227.916 100.997 226.646C115.103 225.375 129.481 234.681 134.1 248.069C138.718 244.666 145.999 245.721 149.461 250.295C154.208 239.002 169.868 235.291 180.816 240.787C191.763 246.28 198.061 258.445 201.836 272.184Z" fill="white"/>
<path d="M182.061 507.773C182.061 507.773 63.7272 507.773 63.7554 508.057C64.0148 503.585 66.4918 499.293 70.2348 496.831C73.9792 494.369 78.8996 493.795 83.1103 495.33C85.5712 483.644 96.5839 474.331 108.517 473.847C120.449 473.363 132.181 481.754 135.579 493.202C138.162 490.494 142.241 489.313 145.872 490.221C149.504 491.13 152.545 494.093 153.548 497.699C157.27 494.264 162.846 492.974 167.698 494.427C172.549 495.88 176.5 500.022 182.061 507.773Z" fill="white"/>
<path d="M578.006 450.123C578.006 450.123 456.952 450.123 457.202 449.979C457.068 445.614 459.224 441.242 462.768 438.69C466.312 436.137 471.144 435.482 475.24 436.994C475.706 431.983 477.837 427.086 481.44 423.574C485.043 420.062 490.138 418.035 495.153 418.453C500.167 418.871 504.973 421.844 507.567 426.16C510.024 423.352 514.056 422.025 517.7 422.825C521.343 423.625 524.449 426.517 525.35 429.821C526.843 424.158 531.247 419.278 536.825 417.495C542.402 415.711 548.973 417.222 553.009 421.466C557.044 425.711 558.186 432.544 555.767 437.917C560.142 436.163 565.277 436.42 569.454 438.602C573.63 440.785 576.774 444.853 578.006 450.123Z" fill="white"/>
<path d="M694.743 599.452C694.743 599.452 558.482 599.452 558.259 599.517C559.919 590.284 570.707 583.967 579.452 587.109C577.674 573.187 587.139 558.673 600.494 554.84C613.849 551.006 629.442 558.331 635.161 571.123C640.469 567.8 648.26 569.547 651.68 574.829C659.565 566.03 673.563 563.597 683.901 569.23C694.237 574.862 699.926 588.024 694.743 599.452Z" fill="white"/>
<path d="M549.797 333.123C552.953 330.043 555.903 326.771 558.6 323.286C553.725 322.676 548.816 322.445 543.926 322.568C541.467 319.144 538.591 315.972 535.338 313.136C533.043 316.513 531.469 320.119 530.512 323.83C525.903 324.586 521.361 325.662 516.938 327.068C521.213 330.504 525.202 332.792 528.93 335.788C527.649 340.38 527.249 345.209 528.345 349.494C532.766 346.83 537.01 343.932 541.022 340.789C544.878 342.902 548.941 344.641 553.16 345.967C552.635 341.531 551.484 337.223 549.797 333.123Z" fill="#FFBE45"/>
<path d="M121.503 389.03C124.692 383.97 127.547 378.719 130.001 373.268C123.378 374.004 116.829 375.254 110.418 376.965C106.089 373.226 101.292 369.952 96.1055 367.241C94.146 372.422 93.2106 377.679 93.1232 382.875C87.2835 385.33 81.632 388.187 76.2412 391.443C82.597 393.91 88.9541 396.378 94.8193 399.15C94.5828 405.612 95.5841 412.111 98.3863 417.414C103.374 412.5 108.055 407.337 112.353 401.919C118.108 403.485 124.018 404.493 130.001 404.908C127.909 399.224 125.024 393.906 121.503 389.03Z" fill="#FFBE45"/>
<path d="M509.899 604.56C512.743 601.81 515.404 598.887 517.837 595.771C513.466 595.203 509.062 594.975 504.676 595.065C502.484 591.982 499.917 589.125 497.011 586.569C494.938 589.589 493.51 592.818 492.637 596.142C488.499 596.801 484.42 597.748 480.445 598.99C484.14 601.574 487.835 604.159 491.166 606.863C489.998 610.977 489.619 615.309 490.584 619.157C494.561 616.786 498.381 614.204 501.994 611.4C505.444 613.312 509.082 614.888 512.86 616.096C512.411 612.114 511.395 608.245 509.899 604.56Z" fill="#FFBE45"/>
<path d="M302.97 189.519C305.094 187.058 307.065 184.457 308.854 181.699C305.416 181.39 301.965 181.373 298.538 181.625C296.71 179.083 294.598 176.747 292.233 174.681C290.722 177.342 289.725 180.155 289.164 183.027C285.954 183.756 282.798 184.727 279.736 185.948C282.72 188.005 285.705 190.063 288.409 192.236C287.647 195.794 287.51 199.506 288.406 202.752C291.429 200.568 294.32 198.212 297.042 195.674C299.809 197.168 302.712 198.368 305.71 199.247C305.212 195.867 304.275 192.605 302.97 189.519Z" fill="#FFBE45"/>
</g>
<path d="M513.71 387.7C507.079 369.958 501.93 355.541 496.471 340.934C488.781 342.081 476.579 346.792 467.966 349.576C475.16 363.633 485.842 378.045 495.987 392.359C500.365 390.373 508.246 388.86 513.71 387.7Z" fill="#FB6F61"/>
<path d="M503.421 384.51C509.722 385.224 515.916 386.812 522.244 389.467C525.488 390.828 528.069 393.522 529.013 396.947C530.194 401.232 530.069 405.908 528.551 410.117C528.189 411.122 527.728 412.136 526.925 412.836C526.123 413.537 524.902 413.843 523.995 413.31C523.005 412.728 522.726 411.436 522.541 410.29C522.035 407.15 521.53 404.011 521.024 400.872C522.027 404.663 521.822 408.785 520.426 412.475C520.082 413.383 519.32 414.13 518.366 414.223C517.027 414.352 516.39 413.169 515.98 412.099C514.704 408.763 514.162 405.136 514.264 401.147C514.245 404.164 513.888 407.183 513.2 410.126C512.921 411.325 512.282 412.766 511.067 412.781C510.439 412.788 509.871 412.363 509.536 411.83C509.201 411.297 509.056 410.664 508.925 410.045C508.265 406.903 507.827 403.708 507.613 400.498C507.884 403.055 507.889 405.642 507.628 408.204C507.533 409.131 507.332 410.175 506.555 410.681C505.84 411.148 504.855 410.96 504.186 410.441C503.517 409.923 503.104 409.142 502.758 408.364C501.622 405.81 501.006 403.017 500.837 400.905C495.909 398.228 493.062 392.143 494.12 386.549C497.097 385.968 499.996 384.122 503.421 384.51Z" fill="#FB6F61"/>
<path d="M278.659 552.582C277.444 584.487 276.228 616.392 275.34 649.23C298.26 655.697 323.665 643.743 337.641 624.791C351.615 605.838 355.762 581.375 354.97 557.96C329.53 561.195 303.58 560.591 278.659 552.582Z" fill="#E0284D"/>
<path d="M254.88 481.545C239.403 453.445 223.926 425.345 208.323 396.266C225.972 380.552 254.156 380.29 275.24 391.25C296.324 402.21 311.075 422.366 320.923 443.716C296.638 451.817 273.627 463.581 254.88 481.545Z" fill="#F63B50"/>
<path d="M605.623 444.952C592.666 472.593 572.793 496.255 548.802 515.433C522.12 536.763 490.338 552.546 457.293 562.096C401.548 578.202 342.331 578.306 284.584 573.066C277.312 572.414 270.065 571.668 262.855 570.861C257.885 563.361 253.69 555.367 250.324 547.054C241.703 525.825 238.438 502.495 241.189 479.805C245.943 475.479 250.862 471.3 255.926 467.277C301.261 431.257 358.5 407.633 417.803 401.373C454.939 397.456 492.774 400.341 528.34 410.067C555.814 417.543 581.919 429.104 605.309 444.744C605.414 444.813 605.518 444.882 605.623 444.952Z" fill="#FFBE45"/>
<path opacity="0.502" d="M605.623 444.952C592.665 472.593 572.792 496.255 548.801 515.433C522.12 536.763 490.337 552.546 457.292 562.096C401.547 578.201 342.331 578.306 284.583 573.066C277.311 572.414 270.065 571.668 262.854 570.86C257.885 563.36 253.69 555.367 250.323 547.054C312.053 560.022 376.992 557.996 437.679 541.101C500.642 523.567 558.888 490.054 605.309 444.745C605.413 444.813 605.518 444.882 605.623 444.952Z" fill="#ED9B2F"/>
<path d="M407.832 402.972C414.263 424.536 429.749 443.241 451.763 453.867C454.237 452.633 456.709 451.401 459.998 452.305C467.532 457.504 475.107 462.736 481.668 469.122C488.228 475.506 493.788 483.16 497.584 493.403C497.831 495.553 498.473 497.654 499.673 499.57C502.137 503.499 507.359 504.461 511.108 501.731C524.898 491.689 534.08 475.599 534.548 459.325C503.549 446.718 477.132 425.227 452.825 405.552C437.05 405.56 421.271 404.713 407.832 402.972Z" fill="#ED9B2F"/>
<path d="M342.138 498.061C343.389 504.617 347.389 510.552 352.848 514.366C356.218 516.721 360.79 515.275 362.211 511.419C363.576 507.715 363.888 503.776 363.277 499.972C364.386 503.493 367.637 506.48 371.703 508.273C374.753 509.618 378.341 508.201 379.753 505.181C385.933 491.977 387.309 477.335 383.737 463.932C379.007 455.632 377.704 446.698 378.668 438.006C386.163 434.229 391.808 428.628 395.099 421.854C398.39 415.081 399.306 407.181 397.7 399.463C376.35 411.669 355.666 425.04 336.714 438.977C336.734 458.95 338.499 478.988 342.138 498.061Z" fill="#ED9B2F"/>
<path d="M605.308 444.746C581.917 429.112 555.809 417.548 528.34 410.067C542.943 433.653 550.741 461.243 550.97 488.841C570.389 475.794 588.616 461.037 605.308 444.746Z" fill="#F63B50"/>
<path d="M605.308 444.746C588.616 461.037 570.389 475.794 550.969 488.841C551.043 497.749 550.334 506.657 548.802 515.433C572.791 496.255 592.666 472.593 605.623 444.952C605.52 444.882 605.413 444.815 605.308 444.746Z" fill="#E0284D"/>
<path d="M478.638 508.188C479.74 486.768 462.965 468.494 441.17 467.372C419.375 466.25 400.812 482.706 399.71 504.126C398.608 525.546 415.382 543.82 437.178 544.942C458.973 546.064 477.535 529.609 478.638 508.188Z" fill="#ED9B2F"/>
<path d="M478.478 504.296C479.58 482.876 462.805 464.602 441.01 463.48C419.215 462.358 400.652 478.814 399.55 500.234C398.447 521.655 415.222 539.929 437.018 541.05C458.813 542.172 477.375 525.717 478.478 504.296Z" fill="#1F9EF2"/>
<path d="M464.965 503.617C464.259 517.314 452.7 527.916 438.896 527.813C438.494 527.814 438.105 527.804 437.705 527.783C434.029 527.593 430.576 526.67 427.487 525.158C422.116 522.526 417.822 518.141 415.365 512.793C413.686 509.201 412.853 505.162 413.07 500.945C413.795 486.866 425.994 476.041 440.331 476.779C442.807 476.906 445.19 477.37 447.427 478.135C453.096 480.036 457.856 483.818 460.977 488.688C462.793 491.508 464.071 494.696 464.634 498.102C464.951 499.888 465.062 501.736 464.965 503.617Z" fill="#324663"/>
<path d="M447.425 478.135L415.364 512.793C413.685 509.201 412.852 505.162 413.069 500.945C413.794 486.866 425.993 476.041 440.33 476.779C442.805 476.908 445.188 477.37 447.425 478.135Z" fill="#537091"/>
<path d="M464.631 498.102L438.895 527.812C438.494 527.814 438.105 527.804 437.705 527.783C434.029 527.593 430.575 526.67 427.487 525.158L460.975 488.688C462.792 491.508 464.068 494.696 464.631 498.102Z" fill="#537091"/>
<path d="M286.302 552.873C286.489 522.091 275.742 491.193 255.925 467.277C250.862 471.3 245.942 475.478 241.188 479.805C238.172 504.691 242.396 530.349 252.971 553.158C252.038 551.145 251.155 549.109 250.323 547.053C262.215 549.551 274.225 551.487 286.302 552.873Z" fill="#1F9EF2"/>
<path d="M286.301 552.873C274.225 551.487 262.214 549.551 250.322 547.053C251.155 549.108 252.039 551.143 252.971 553.158C253.01 553.243 253.052 553.328 253.091 553.414C253.499 554.289 253.918 555.161 254.344 556.028C254.445 556.234 254.548 556.437 254.65 556.642C255.025 557.394 255.406 558.141 255.794 558.886C255.927 559.14 256.06 559.394 256.194 559.647C256.565 560.345 256.942 561.041 257.325 561.731C257.474 562.001 257.623 562.272 257.774 562.542C258.16 563.226 258.552 563.907 258.949 564.584C259.102 564.844 259.251 565.105 259.404 565.365C259.828 566.077 260.26 566.784 260.697 567.488C260.832 567.703 260.962 567.923 261.097 568.138C261.671 569.052 262.255 569.96 262.852 570.86C270.063 571.668 277.309 572.414 284.581 573.066C285.7 566.39 286.261 559.635 286.301 552.873Z" fill="#1F82F2"/>
<path d="M247.356 528.71C241.642 506.633 242.568 487.098 244.221 486.28C246.755 485.027 252.118 504.717 257.832 526.794C263.547 548.872 267.738 566.536 264.916 566.231C262.601 565.981 253.071 550.787 247.356 528.71Z" fill="#324663"/>
<path d="M265.037 557.367C264.116 559.461 263.162 561.532 262.162 563.588C254.397 579.8 244.667 595.004 233.309 608.705C232.405 599.562 231.512 590.421 230.608 581.266C222.713 595.993 210.017 607.849 195.167 614.359C195.969 605.682 196.772 596.995 197.573 588.307C191.382 592.399 185.18 596.501 178.978 600.593C181.361 593.258 184.661 584.114 186.943 578.71C156.497 589.791 112.978 606.987 76.7752 623.739C75.5624 614.092 66.9383 574.939 66 563.329C96.2792 550.516 131.97 537.355 165.997 525.818C160.127 523.488 145.533 516.115 139.65 513.785C147.098 510.63 155.2 509.247 163.191 509.774C155.891 502.925 148.592 496.077 141.291 489.24C158.522 483.426 177.257 482.671 194.809 487.092C190.51 481.131 186.223 475.182 181.925 469.222C202.968 472.137 223.48 479.128 243.18 490.555C244.959 491.586 246.726 492.651 248.491 493.762C249.721 497.25 251.081 501.754 252.523 506.902C254.198 512.877 255.999 519.717 257.834 526.799C258.874 530.839 259.877 534.729 260.788 538.396C262.658 545.949 264.176 552.51 265.037 557.367Z" fill="#FFD470"/>
<path d="M260.79 538.394C258.809 542.165 256.726 545.883 254.524 549.528C250.228 556.65 245.509 563.521 240.405 570.086C240.074 562.725 240.685 555.312 242.202 548.103C239.1 552.503 234.927 556.127 230.139 558.572C231.943 554.69 233.746 550.807 235.549 546.936C226.292 556.3 215.737 564.395 204.29 570.896C205.505 564.875 206.719 558.855 207.934 552.834C167.742 565.188 110.859 588.419 71.937 604.355C70.4015 597.448 68.8316 591.457 67.5239 584.596C103.492 567.075 158.71 544.584 197.71 535.606C192.265 531.212 186.82 526.831 181.375 522.45C194.682 520.318 208.222 519.65 221.676 520.447C219.338 518.024 217.012 515.591 214.673 513.167C218.515 513.319 222.322 514.123 225.892 515.544C220.351 508.786 214.8 502.028 209.259 495.27C220.75 497.259 232.084 500.065 243.25 503.698C246.36 504.706 249.443 505.77 252.524 506.902C254.199 512.877 256 519.717 257.835 526.799C258.876 530.838 259.879 534.728 260.79 538.394Z" fill="#FF763B"/>
<path d="M322.601 375.749C319.01 360.498 315.418 345.247 311.836 328.558C321.315 324.612 331.075 321.348 342.822 318.435C361.169 320.041 379.069 326.501 393.406 336.351C390.497 343.838 386.39 350.859 381.416 357.213C385.068 364.992 388.72 372.77 392.372 380.55C375.457 382.063 358.45 382.565 341.474 382.054C334.781 381.853 324.233 382.678 322.601 375.749Z" fill="#FFBE45"/>
<path d="M362.08 343.709C364.741 351.344 368.902 358.341 374.205 364.094" stroke="#F08826" stroke-width="1.23131" stroke-miterlimit="10" stroke-linecap="round" stroke-linejoin="round"/>
<path d="M347.297 321.304C347.004 322.513 346.659 323.698 346.263 324.869C344.03 331.5 340.276 337.522 335.474 342.263C333.04 344.656 329.5 344.87 326.864 342.819C325.653 341.872 324.552 340.806 323.582 339.668C321.433 337.13 319.895 334.171 319.019 330.985C328.364 329.175 338.101 325.899 347.297 321.304Z" fill="#FE8C6D"/>
<path d="M347.297 321.304C347.004 322.513 346.659 323.698 346.263 324.869C340.521 332.353 332.379 337.705 323.581 339.668C321.432 337.13 319.894 334.171 319.018 330.985C328.364 329.175 338.102 325.899 347.297 321.304Z" fill="#3E2336"/>
<path d="M307.442 350.076L304.537 401.417L326.511 397.046L329.067 377.917L307.442 350.076Z" fill="#FE8C6D"/>
<path d="M309.305 330.477C304.556 336.552 299.845 346.043 295.27 354.238C300.927 362.99 314.1 369.879 325.677 370.833C322.961 357.431 317.044 342.448 309.305 330.477Z" fill="#FFBE45"/>
<path d="M353.17 319.449C348.679 329.845 347.148 340.91 347.66 352.888C349.694 356.773 351.728 360.657 354.169 364.303C356.459 360.184 358.748 356.065 360.809 351.602C359.993 341.767 361.9 331.7 366.248 322.89C362.518 320.859 357.989 320.071 353.17 319.449Z" fill="#6CC4BD"/>
<path d="M314.89 362.874C311.339 355.742 308.137 343.581 307.03 333.491C307.924 329.38 310.221 326.635 314.549 324.413C316.742 337.263 318.979 348.018 323.793 360.096C323.687 362.155 323.779 365.802 324.203 369.922C320.591 367.696 315.433 363.964 314.89 362.874Z" fill="#6CC4BD"/>
<path d="M373.954 430.031C382.267 429.573 389.939 424.367 394.319 417.287C398.699 410.207 399.984 401.48 398.876 393.229C397.768 384.976 394.399 377.159 390.072 370.045C380.037 369.475 369.403 364.054 360.514 358.561C346.012 361.772 330.719 363.969 319.821 363.923C321.615 372.637 324.219 385.447 327.195 397.525C328.664 396.238 328.363 392.008 329.834 390.722C322.903 391.926 316.032 394.541 309.189 398.121" fill="#6CC4BD"/>
<path d="M348.399 394.301C344.987 396.673 341.968 399.609 339.503 402.955" stroke="#46949C" stroke-width="1.23131" stroke-miterlimit="10" stroke-linecap="round" stroke-linejoin="round"/>
<path d="M326.912 391.981C349.733 394.834 373.414 390.352 393.612 379.356" stroke="#46949C" stroke-width="1.23131" stroke-miterlimit="10" stroke-linecap="round" stroke-linejoin="round"/>
<path d="M329.919 382.377L327.582 372.018C335.892 371.851 343.637 370.999 352.259 369.072C352.68 372.197 353.101 375.322 353.474 378.501C353.824 381.478 352.423 384.43 349.789 385.995C348.365 386.839 346.877 387.609 345.313 388.294C343.763 388.972 342.043 389.271 340.353 389.053C338.139 388.768 335.985 388.217 334.014 387.353C331.911 386.429 330.412 384.56 329.919 382.377Z" stroke="#46949C" stroke-width="1.23131" stroke-miterlimit="10" stroke-linecap="round" stroke-linejoin="round"/>
<path d="M296.677 320.432C293.824 329.575 289.521 338.119 284.056 345.492C282.642 347.4 280.936 349.357 278.8 349.548C276.978 349.712 275.152 348.369 274.495 346.388C273.84 344.407 274.407 341.941 275.833 340.579C271.53 344.544 265.964 346.561 260.552 346.114C256.654 345.792 252.513 343.874 250.827 339.774C248.835 334.931 251.122 328.798 254.797 325.449C258.472 322.099 263.178 320.866 267.711 319.725C265.68 321.337 262.795 318.392 263.244 315.581C263.692 312.77 266.258 310.981 268.687 310.736C271.117 310.49 273.491 311.387 275.866 311.969C281.777 313.417 288.056 312.909 293.794 310.518C294.493 313.787 295.194 317.056 296.677 320.432Z" fill="#692539"/>
<path d="M380.669 287.5C386.908 283.789 395.312 283.538 401.837 286.866C408.361 290.195 412.747 296.971 412.883 303.932C412.896 304.632 412.857 305.374 412.439 305.952C411.714 306.955 410.086 307.04 408.941 306.466C407.796 305.891 407.022 304.844 406.293 303.833C408.063 310.836 405.957 318.584 400.837 323.892C399.348 325.436 397.444 326.85 395.223 326.926C393.139 326.999 391.066 325.738 390.276 323.917C389.486 322.095 390.033 319.842 391.583 318.537C390.681 321.317 389.394 324.135 386.977 325.94C384.56 327.744 380.744 328.171 378.453 326.199C375.613 323.757 376.489 319.489 377.085 315.929C378.273 308.821 377.343 301.398 374.429 294.72C377.266 292.873 379.438 290.145 380.669 287.5Z" fill="#692539"/>
<path d="M375.76 283.947C373.032 297.165 366.149 309.58 356.007 318.487C345.865 327.391 332.463 332.645 318.968 332.455C309.195 332.317 299.457 329.254 291.394 323.771C286.376 320.359 283.394 314.732 283.128 308.669C282.736 299.752 280.674 291.442 279.29 283.116C277.511 272.411 276.962 260.897 283.451 249.268C296.897 239.941 313.612 235.431 329.925 236.727C342.151 237.7 354.566 242.188 362.687 251.377C370.255 259.94 378.312 271.582 375.76 283.947Z" fill="#FE8C6D"/>
<path d="M367.295 297.301C358.397 288.066 353.293 275.28 353.385 262.456C344.738 261.373 337.309 253.897 335.919 244.094C325.965 248.699 316.01 253.303 306.056 257.908C304.271 258.735 302.143 259.555 300.424 258.597C298.889 257.74 298.346 255.703 298.698 253.98C299.05 252.258 300.1 250.773 301.249 249.224C291.611 253.055 283.5 260.585 279.101 270.4C278.55 278.533 279.962 286.561 281.566 294.96C276.69 295.929 271.721 294.054 268.186 290.558C264.651 287.062 262.996 281.768 263.909 276.882C259.312 279.62 252.856 277.256 250.044 272.703C247.232 268.149 247.559 262.19 249.631 257.256C251.702 252.322 255.301 248.207 258.925 244.269C256.1 242.066 254.964 238.164 255.445 234.616C256.18 229.203 260.242 224.668 265.077 222.126C269.911 219.585 275.454 218.758 280.899 218.336C286.345 217.915 291.85 217.855 297.186 216.686C309.454 214 320.501 205.553 333.054 205.975C339.571 206.194 345.969 208.961 350.591 213.56C355.214 218.159 358.015 224.542 358.842 229.73C368.095 229.304 376.924 235.172 381.617 243.157C386.311 251.142 387.299 260.882 386.096 270.065C384.893 279.248 381.648 288.025 378.314 296.666C375.045 295.61 371.375 295.854 367.295 297.301Z" fill="#692539"/>
<path d="M362.781 298.071C364.75 292.76 370.93 289.396 376.459 290.626C381.988 291.856 386.159 297.524 385.69 303.168C385.37 307.008 383.137 310.539 380.112 312.925C377.085 315.311 373.329 316.635 369.524 317.249C365.432 317.909 360.689 317.555 357.972 314.426" fill="#FE8C6D"/>
<path d="M331.366 272.28C334.224 270.785 337.53 270.327 340.613 270.996C343.698 271.665 346.541 273.459 348.568 276.012C348.972 272.954 347.84 269.741 345.664 267.768C343.488 265.794 340.338 265.12 337.577 266.04C334.816 266.959 332.532 269.442 331.366 272.28Z" fill="#692539"/>
<path d="M287.913 279.439C289.449 276.94 291.912 275.026 294.715 274.157C297.516 273.288 300.631 273.471 303.312 274.663C302.419 271.98 300.033 269.85 297.265 269.267C294.498 268.685 291.454 269.672 289.557 271.768C287.658 273.865 286.976 276.99 287.913 279.439Z" fill="#692539"/>
<path d="M338.795 305.526C337.84 301.694 341.229 297.551 346.364 296.271C351.498 294.992 356.434 297.062 357.389 300.894C358.343 304.725 354.954 308.869 349.82 310.148C344.685 311.427 339.749 309.358 338.795 305.526Z" fill="#FB6F61"/>
<path d="M335.11 297.297C334.914 294.556 336.544 292.207 338.749 292.049C340.955 291.892 342.901 293.986 343.097 296.727C343.293 299.468 341.663 301.817 339.457 301.974C337.252 302.132 335.305 300.038 335.11 297.297Z" fill="#3E2336"/>
<path d="M305.87 307.874C306.271 303.945 302.329 300.325 297.064 299.788C291.8 299.251 287.207 301.999 286.805 305.928C286.404 309.858 290.347 313.478 295.612 314.014C300.876 314.551 305.468 311.803 305.87 307.874Z" fill="#FB6F61"/>
<path d="M308.349 299.205C308.153 296.465 306.207 294.371 304.001 294.528C301.796 294.685 300.166 297.035 300.362 299.776C300.557 302.516 302.504 304.61 304.709 304.453C306.915 304.296 308.545 301.946 308.349 299.205Z" fill="#3E2336"/>
<path d="M314.488 296.221C313.459 297.148 312.882 298.553 312.959 299.936C313.037 301.318 313.771 302.65 314.897 303.455" stroke="#E0483A" stroke-width="1.23131" stroke-miterlimit="10" stroke-linecap="round" stroke-linejoin="round"/>
<path d="M331.257 317.58C329.548 320.517 326.08 322.217 322.695 322.1C320.351 322.025 318.093 321.154 316.194 319.761C315.356 319.145 314.579 318.429 313.898 317.627C311.706 315.04 310.502 311.713 310.125 308.348C310.507 308.264 310.888 308.193 311.27 308.12C317.893 306.755 324.47 305.843 331.046 304.933C331.156 305.26 331.264 305.597 331.373 305.936C331.775 307.227 332.119 308.574 332.313 309.913C332.728 312.581 332.59 315.265 331.257 317.58Z" fill="#3E2336"/>
<path d="M331.375 305.936C326.321 309.972 320.102 311.954 314.055 311.483C312.983 311.393 312.036 310.657 311.626 309.502C311.475 309.082 311.35 308.629 311.273 308.12C317.897 306.755 324.473 305.843 331.05 304.933C331.158 305.26 331.266 305.597 331.375 305.936Z" fill="white"/>
<path d="M331.256 317.58C329.547 320.517 326.08 322.217 322.695 322.1C320.35 322.025 318.092 321.154 316.193 319.761C317.191 316.845 319.055 314.237 321.542 312.441C324.588 310.238 328.507 309.328 332.315 309.914C332.727 312.581 332.59 315.265 331.256 317.58Z" fill="#FA4664"/>
<path d="M349.037 260.362L355.964 249.627C356.468 248.846 357.509 248.621 358.29 249.125L358.562 249.302C359.343 249.805 359.568 250.847 359.063 251.627L352.136 262.363C351.632 263.144 350.59 263.369 349.81 262.864L349.538 262.688C348.757 262.185 348.533 261.144 349.037 260.362Z" fill="#6CC4BD"/>
<path d="M349.986 244.866C352.028 241.702 357.239 241.43 361.624 244.259C366.008 247.089 367.908 251.947 365.866 255.113C363.824 258.278 358.923 258.069 354.537 255.24C350.153 252.41 347.944 248.032 349.986 244.866Z" fill="white"/>
<path d="M355.958 239.456C358.126 235.742 361.66 231.671 363.767 232.903C366.201 234.324 364.066 239.212 361.899 242.926C359.731 246.639 357.557 247.308 355.916 246.35C354.276 245.392 353.789 243.169 355.958 239.456Z" fill="white"/>
<path d="M368.336 247.443C370.825 243.938 373.079 239.041 371.089 237.627C368.791 235.995 365.217 239.955 362.727 243.46C360.237 246.966 360.523 249.223 362.072 250.322C363.621 251.422 365.846 250.949 368.336 247.443Z" fill="white"/>
<path d="M350.305 246.9C350.866 246.343 351.977 246.549 352.79 247.365C353.603 248.18 353.807 249.293 353.247 249.851C352.687 250.408 351.575 250.202 350.762 249.386C349.949 248.571 349.745 247.458 350.305 246.9Z" fill="#FB6F61"/>
<path d="M363.881 255.66C364.159 254.92 363.512 253.992 362.434 253.588C361.357 253.184 360.259 253.456 359.982 254.196C359.703 254.936 360.351 255.864 361.428 256.268C362.506 256.673 363.604 256.4 363.881 255.66Z" fill="#FB6F61"/>
<path d="M353.172 247.586C353.556 246.991 354.349 246.82 354.944 247.204C355.539 247.589 355.71 248.382 355.326 248.976C354.941 249.571 354.148 249.742 353.554 249.358C352.959 248.975 352.788 248.181 353.172 247.586Z" fill="#3E2336"/>
<path d="M359.918 251.94C360.302 251.345 361.095 251.174 361.69 251.558C362.285 251.942 362.456 252.735 362.072 253.33C361.688 253.925 360.895 254.096 360.3 253.712C359.706 253.329 359.535 252.535 359.918 251.94Z" fill="#3E2336"/>
<path d="M369.925 471.965C366.715 484.955 357.106 500.848 345.377 511.272C343.42 513.007 340.444 513.011 338.461 511.304C334.488 507.878 332.542 502.333 332.381 497.006C332.212 491.053 333.882 485.268 335.786 479.611C336.087 478.709 336.389 477.806 336.699 476.916C341.861 473.025 348.027 468.409 353.957 463.515C355.951 463.649 357.942 463.944 359.92 464.401C362.314 464.944 364.682 465.727 366.949 466.713C369.043 467.627 370.465 469.814 369.925 471.965Z" fill="#FE8C6D"/>
<path d="M369.925 471.965C366.715 484.955 357.106 500.848 345.377 511.272C343.42 513.007 340.444 513.011 338.461 511.304C334.488 507.877 332.542 502.333 332.381 497.006C332.212 491.053 333.882 485.268 335.786 479.611C341.825 477.013 349.387 477.973 354.362 482.33C357.981 477.113 359.949 470.748 359.922 464.401C362.315 464.944 364.683 465.727 366.95 466.713C369.043 467.627 370.465 469.814 369.925 471.965Z" fill="#692539"/>
<path d="M294.952 413.954C294.06 412.967 293.296 412.161 293.253 411.333C293.162 409.617 302.231 399.812 308.707 396.742C310.977 395.664 313.516 395.303 316.006 395.653C325.204 396.946 333.503 401.318 339.317 407.98C335.015 414.082 335.498 413.398 331.196 419.499C319.714 415.295 307.466 413.262 294.952 413.954Z" fill="#89E0D5"/>
<path d="M328.529 416.066C323.009 409.3 313.928 405.619 304.368 406.554C299.862 408.749 295.761 411.761 292.18 415.624C288.092 420.036 287.431 426.669 290.684 431.727C299.926 446.091 325.248 468.682 336.774 477.314C342.103 474.769 346.767 470.844 350.186 466.029C343.529 449.082 339.937 430.049 328.529 416.066Z" fill="#FE8C6D"/>
<path d="M371.553 461.02C367.53 452.429 364.229 443.501 361.693 434.361C365.47 427.385 365.491 420.18 362.539 414.399C359.586 408.618 353.737 404.41 348.574 403.589C339.632 405.725 331.187 409.882 324.251 415.544C320.603 418.521 319.369 423.579 321.387 427.835C329.868 445.712 340.638 462.518 353.78 477.643C361.407 474.468 367.887 468.615 371.553 461.02Z" fill="#FE8C6D"/>
<path d="M384.602 466.329C382.729 479.578 374.784 496.365 364.177 507.928C362.405 509.853 359.445 510.159 357.3 508.662C352.999 505.656 350.499 500.338 349.797 495.056C349.024 489.151 350.096 483.225 351.416 477.405C351.625 476.477 351.833 475.548 352.052 474.631C356.792 470.235 362.456 465.017 367.858 459.544C369.855 459.475 371.866 459.567 373.881 459.819C376.317 460.116 378.752 460.654 381.107 461.405C383.284 462.103 384.922 464.135 384.602 466.329Z" fill="#FE8C6D"/>
<path d="M384.602 466.329C382.729 479.578 374.784 496.365 364.177 507.928C362.405 509.853 359.445 510.159 357.3 508.662C352.999 505.656 350.499 500.338 349.797 495.056C349.024 489.15 350.096 483.225 351.416 477.405C357.16 474.206 364.78 474.392 370.173 478.221C373.243 472.663 374.553 466.132 373.881 459.819C376.317 460.116 378.752 460.654 381.107 461.405C383.284 462.103 384.922 464.135 384.602 466.329Z" fill="#692539"/>
<path d="M326.786 413.806C325.859 414.482 324.962 415.201 324.069 415.997C320.617 419.07 319.551 424.058 321.475 428.26C329.236 445.2 339.417 461.03 351.623 475.109" stroke="#E0483A" stroke-width="1.23131" stroke-miterlimit="10" stroke-linecap="round" stroke-linejoin="round"/>
<path d="M359.213 427.539C359.75 429.664 360.516 431.732 361.493 433.693" stroke="#E0483A" stroke-width="1.23131" stroke-miterlimit="10" stroke-linecap="round" stroke-linejoin="round"/>
<path d="M334.845 404.489C333.283 405.198 331.867 406.225 330.642 407.713C330.295 408.134 330.142 408.687 330.177 409.231L330.268 410.7" stroke="#6CC4BD" stroke-width="1.23131" stroke-miterlimit="10" stroke-linecap="round" stroke-linejoin="round"/>
<path d="M333.339 406.234C332.728 407.001 332.493 408.967 332.442 409.947C347.845 409.126 365.29 419.847 361.489 434.689C366.491 435.182 371.636 434.09 376.656 431.22C379.731 419.213 368.251 404.395 354.239 398.667C351.448 397.526 348.307 397.6 345.572 398.872C340.081 401.427 335.277 403.801 333.339 406.234Z" fill="#89E0D5"/>
<path d="M391.296 341.259C391.296 341.259 382.586 354.878 374.963 363.645L414.949 402.252L427.276 389.541C427.276 389.541 407.957 354.219 391.296 341.259Z" fill="#FE8C6D"/>
<path d="M453.155 444.832C456.596 444.288 460.149 443.354 463.392 442.082C460.592 440.479 457.627 439.165 454.56 438.169C453.901 440.429 453.331 442.78 453.155 444.832Z" fill="#821F38"/>
<path d="M522.782 452.175C511.12 439.669 492.589 423.241 480.041 411.137C468.582 417.041 458.484 425.565 450.547 436.955C471.696 447.073 496.144 464.895 514.585 479.229C516.507 470.331 521.107 459.526 522.782 452.175Z" fill="#FE8C6D"/>
<path d="M524.009 480.322C522.306 481.574 520.253 482.064 518.296 481.816C516.476 481.573 514.744 480.694 513.482 479.186C510.926 476.11 508.981 472.287 508.243 468.801C507.066 463.185 507.733 457.33 509.063 451.751C511.095 443.207 514.898 434.752 521.639 429.12C526.272 425.234 532.516 422.99 538.714 423.641C543.124 424.097 546.521 427.548 547.057 431.826C547.124 432.287 547.146 432.758 547.134 433.227C546.77 451.215 538.764 469.431 524.009 480.322Z" fill="#3E2336"/>
<path d="M524.009 480.322C522.306 481.574 520.253 482.065 518.296 481.816C518.049 481.471 517.817 481.115 517.618 480.738C516.616 478.842 516.339 476.652 516.21 474.503C515.422 461.758 519.252 448.781 526.837 438.507C529.521 434.876 532.836 431.449 537.125 430.032C540.341 428.972 544.193 429.375 547.057 431.826C547.124 432.287 547.147 432.758 547.134 433.227C546.77 451.215 538.764 469.431 524.009 480.322Z" fill="#633952"/>
<path d="M407.317 375.643C403.028 385.115 403.718 396.372 407.746 405.957C411.777 415.541 418.887 423.579 426.978 430.109C435.071 436.639 444.169 441.784 453.155 444.831C461.962 433.028 475.557 423.748 488.831 418.443C485.311 413.059 481.002 407.701 476.727 402.961C478.162 401.419 478.929 399.927 479.486 398.302C480.528 395.26 480.728 391.995 480.26 388.816C479.947 386.69 479.618 384.453 479.08 382.871C458.392 377.687 439.048 375.165 417.827 373.02" fill="#F63B50"/>
<path d="M474.736 403.313C464.503 400.675 453.344 401.795 443.838 406.413" stroke="#B32040" stroke-width="1.23131" stroke-miterlimit="10" stroke-linecap="round" stroke-linejoin="round"/>
<path d="M468.848 400.061C459.542 396.499 449.382 395.194 439.478 396.288" stroke="#B32040" stroke-width="1.23131" stroke-miterlimit="10" stroke-linecap="round" stroke-linejoin="round"/>
<path d="M481.685 388.755C460.834 391.771 429.132 386.998 405.107 378.953C413.177 347.927 428.701 322.561 449.51 301.267C457.231 302.295 465.056 302.537 475.026 302.024C487.455 308.251 502.284 332.357 509.959 348.357C502.258 351.968 490.976 356.315 482.147 358.002C482.149 369.069 482.511 377.588 481.685 388.755Z" fill="white"/>
<g opacity="0.702">
<path d="M476.089 351.501C469.768 339.301 462.18 327.758 453.485 317.12" stroke="#C9ABB0" stroke-width="1.23131" stroke-miterlimit="10" stroke-linecap="round" stroke-linejoin="round"/>
<path d="M448.205 366.753C446.773 367.375 445.341 367.997 443.936 368.625C435.282 358.774 431.124 345.121 432.818 332.12" stroke="#C9ABB0" stroke-width="1.23131" stroke-miterlimit="10" stroke-linecap="round" stroke-linejoin="round"/>
<path d="M438.184 360.492C433.338 358.888 429.021 355.721 426.036 351.579" stroke="#C9ABB0" stroke-width="1.23131" stroke-miterlimit="10" stroke-linecap="round" stroke-linejoin="round"/>
<path d="M483.445 320.292C483.195 332.738 482.945 345.184 482.695 357.63" stroke="#C9ABB0" stroke-width="1.23131" stroke-miterlimit="10" stroke-linecap="round" stroke-linejoin="round"/>
</g>
<path d="M480.502 315.086C480.305 315.817 480.058 316.546 479.778 317.243C477.798 322.137 470.123 323.813 464.934 320.532C459.034 316.801 454.389 311.296 451.805 305.781C451.865 305.784 451.939 305.788 452 305.781C461.871 305.99 471.204 305.893 480.456 305.233C481.381 308.257 481.394 311.792 480.502 315.086Z" fill="#FE8C6D"/>
<path d="M480.502 315.086C475.599 314.602 470.718 313.927 466.028 312.646C460.794 311.222 455.772 308.98 452.002 305.782C461.872 305.991 471.206 305.894 480.458 305.234C481.381 308.257 481.395 311.792 480.502 315.086Z" fill="#3E2336"/>
<path d="M425.848 294.6C442.34 309.034 466.948 313.481 487.449 305.733C491.515 304.196 495.501 302.109 498.951 299.443C504.921 294.832 507.923 287.381 507.06 279.887C505.52 266.52 505.189 253.18 505.955 239.919C506.18 236.023 505.116 232.169 503.017 228.88C495.571 217.218 484.576 208.659 472.107 204.982C458.464 202.869 444.125 205.555 432.172 212.463C420.218 219.372 410.733 230.455 405.9 243.19C405.967 262.123 411.999 282.48 425.848 294.6Z" fill="#FE8C6D"/>
<path d="M411.103 219.784C403.835 220.478 397.967 226.692 395.808 233.665C393.65 240.638 394.573 248.197 396.316 255.286C399.152 266.828 405.559 277.202 413.887 286.433C417.783 286.882 418.46 288.683 423.571 288.364C428.598 270.31 431.231 251.592 432.081 231.651C434.285 233.389 436.531 235.151 439.143 236.176C441.756 237.2 444.839 237.395 447.29 236.025C449.74 234.656 451.231 231.456 450.111 228.883C452.139 230.954 454.478 232.827 457.24 233.708C460.002 234.59 463.25 234.332 465.489 232.492C467.728 230.651 468.546 227.069 467.059 224.7C469.243 226.539 471.462 228.401 474.059 229.588C476.655 230.775 479.723 231.223 482.37 230.151C485.016 229.078 487.025 226.229 486.542 223.416C489.25 228.181 495.577 230.525 501.027 228.679C503.328 231.976 505.313 240.844 505.616 248.529C511.896 240.727 512.509 225.423 507.097 216.994C508.916 218.16 511.542 217.431 512.858 215.719C514.175 214.005 514.314 211.595 513.653 209.537C512.991 207.481 511.627 205.724 510.143 204.153C501.109 194.594 487.551 190.937 474.572 188.812C465.804 187.376 456.873 186.444 448.036 187.371C439.2 188.298 430.405 191.191 423.471 196.747C416.535 202.303 411.653 210.718 411.103 219.784Z" fill="#3E2336"/>
<path d="M414.464 225.776C410.672 222.054 407.189 218.048 405.093 213.602C402.996 209.156 402.373 204.2 404.322 199.947C407.735 192.499 417.701 189.872 416.747 191.956C412.804 200.555 410.795 215.174 414.464 225.776Z" fill="#3E2336"/>
<path d="M415.959 225.692C413.638 222.016 410.552 218.831 406.825 217.05C403.098 215.268 398.698 215.002 395.029 216.854C387.515 220.645 386.028 228.549 388.546 227.279C393.456 224.801 405.309 221.611 415.959 225.692Z" fill="#3E2336"/>
<path d="M428.362 282.497C424.211 279.858 419.19 277.816 414.556 279.389C408.79 281.344 405.71 288.914 407.59 294.954C409.469 300.993 415.43 305.036 421.47 305.335C427.51 305.634 433.434 302.621 437.764 298.15" fill="#FE8C6D"/>
<path d="M435.243 257.969C433.964 254.166 435.769 249.555 439.259 247.709C442.748 245.864 447.491 247.011 449.814 250.262C443.834 249.613 437.653 253.189 435.243 257.969Z" fill="#3E2336"/>
<path d="M479.852 245.529C481.226 242.12 485.129 240.073 488.586 240.947C492.043 241.821 494.642 245.515 494.402 249.21C490.786 245.748 485.475 244.326 479.852 245.529Z" fill="#3E2336"/>
<path d="M433.117 283.121C432.934 279.333 436.996 276.058 442.191 275.807C447.386 275.554 451.747 278.421 451.931 282.208C452.114 285.996 448.052 289.271 442.857 289.522C437.662 289.775 433.302 286.908 433.117 283.121Z" fill="#FB6F61"/>
<path d="M444.403 275.743C443.974 273.01 445.509 270.5 447.832 270.135C450.154 269.771 452.384 271.69 452.814 274.423C453.242 277.155 451.707 279.666 449.385 280.03C447.061 280.395 444.831 278.475 444.403 275.743Z" fill="#3E2336"/>
<path d="M502.9 272.171C501.915 268.509 497.045 266.636 492.021 267.987C486.999 269.337 483.726 273.402 484.711 277.064C485.696 280.726 490.566 282.599 495.59 281.248C500.612 279.897 503.885 275.833 502.9 272.171Z" fill="#FB6F61"/>
<path d="M489.898 268.604C489.469 265.871 487.238 263.952 484.916 264.316C482.594 264.681 481.058 267.191 481.487 269.924C481.915 272.656 484.145 274.575 486.469 274.211C488.792 273.846 490.326 271.336 489.898 268.604Z" fill="#3E2336"/>
<path d="M468.93 275.693C469.602 273.821 471.699 272.577 473.664 272.885C475.629 273.191 477.247 275.016 477.316 277.004" stroke="#E0483A" stroke-width="1.23131" stroke-miterlimit="10" stroke-linecap="round" stroke-linejoin="round"/>
<path d="M480.855 297.963C480.562 298.161 480.268 298.361 479.965 298.549C474.712 301.765 467.825 301.51 462.821 297.917C459.679 295.651 457.373 292.136 456.278 288.237C455.62 285.926 455.393 283.478 455.661 281.072C455.913 281.114 456.167 281.146 456.429 281.188C465.141 282.467 477.687 282.959 487.024 282.498C487.404 282.48 487.774 282.452 488.134 282.435C488.546 288.425 485.583 294.574 480.855 297.963Z" fill="#3E2336"/>
<path d="M480.855 297.963C480.562 298.161 480.268 298.361 479.965 298.549C474.712 301.765 467.826 301.51 462.822 297.917C459.679 295.651 457.373 292.136 456.278 288.237C458.761 287.109 461.482 286.545 464.201 286.573H464.21C466.13 286.595 468.047 286.908 469.865 287.552C469.942 287.573 470.03 287.604 470.107 287.633C474.85 289.379 478.79 293.236 480.855 297.963Z" fill="#FA4664"/>
<path d="M487.024 282.498C486.703 284.06 486.003 285.279 484.8 285.983C482.072 287.6 476.056 288.213 469.863 287.552C467.965 287.349 466.047 287.026 464.199 286.573C462.925 286.264 461.68 285.895 460.504 285.456C458.589 284.752 457.1 283.158 456.43 281.188C465.141 282.468 477.688 282.959 487.024 282.498Z" fill="white"/>
<path d="M501.787 392.993C491.374 377.172 483.874 365.313 475.301 352.287C468.06 355.117 456.484 361.372 448.706 366.004C458.848 378.108 472.469 389.782 485.545 401.48C489.371 398.569 496.716 395.339 501.787 392.993Z" fill="#FE8C6D"/>
<path d="M491.046 392.172C497.348 391.467 503.739 391.638 510.5 392.817C513.965 393.422 517.081 395.475 518.764 398.605C520.869 402.52 521.758 407.677 521.214 412.118C520.986 413.979 519.487 417.032 516.912 416.216C515.817 415.869 515.258 414.671 514.822 413.595C513.63 410.646 513.039 407.156 511.849 404.208C513.67 407.681 514.936 412.233 514.395 416.141C514.262 417.103 513.259 418.494 512.18 418.612C510.844 418.757 509.519 417.713 508.881 416.76C506.895 413.793 506.108 409.893 505.32 405.981C506.314 408.943 507.24 412.515 507.225 415.536C507.207 419.255 503.582 418.846 502.565 417.594C502.167 417.105 501.837 416.565 501.572 415.988C500.229 413.071 499.614 409.91 498.691 406.828C500.405 411.829 501.679 415.682 500.091 417.115C499.457 417.686 498.33 417.641 497.563 417.285C496.796 416.929 496.218 416.259 495.709 415.577C494.034 413.34 492.811 410.754 492.176 408.732C486.775 407.219 482.647 401.919 482.433 396.229C485.204 395 487.62 392.556 491.046 392.172Z" fill="#FE8C6D"/>
<path d="M514.409 412.332C514.173 409.482 513.524 406.666 512.487 404" stroke="#E0483A" stroke-width="1.23131" stroke-miterlimit="10" stroke-linecap="round" stroke-linejoin="round"/>
<path d="M506.95 412.405C506.618 410.105 505.984 407.848 505.069 405.712" stroke="#E0483A" stroke-width="1.23131" stroke-miterlimit="10" stroke-linecap="round" stroke-linejoin="round"/>
<path d="M500.593 413.48C500.337 411.315 499.661 409.201 498.614 407.289" stroke="#E0483A" stroke-width="1.23131" stroke-miterlimit="10" stroke-linecap="round" stroke-linejoin="round"/>
</g>
</g>
<defs>
<clipPath id="clip0_240_310">
<rect width="672" height="672" fill="white"/>
</clipPath>
<clipPath id="clip1_240_310">
<rect width="672" height="672" fill="white"/>
</clipPath>
</defs>
</svg>
