<svg width="672" height="672" viewBox="0 0 672 672" fill="none" xmlns="http://www.w3.org/2000/svg">
<g clip-path="url(#clip0_240_618)">
<path d="M672 0H0V672H672V0Z" fill="#FFF5CF"/>
<path d="M178.097 169.416H56.9473V322.124H178.097V169.416Z" fill="#5BBDE8"/>
<path d="M619.301 408.171H353.356V417.496H619.301V408.171Z" fill="#5BBDE8"/>
<path d="M612.166 140.367H368.351V408.04H612.166V140.367Z" fill="#5BBDE8"/>
<path d="M306.121 126.075H191.109V206.197H306.121V126.075Z" fill="#5BBDE8"/>
<path d="M672 591.103H0V672H672V591.103Z" fill="#CAC09C"/>
<path opacity="0.82" d="M319.091 636.186C383.716 636.186 436.105 630.464 436.105 623.407C436.105 616.35 383.716 610.629 319.091 610.629C254.465 610.629 202.076 616.35 202.076 623.407C202.076 630.464 254.465 636.186 319.091 636.186Z" fill="#FFF5CF"/>
<path d="M605.671 135.837H361.855V403.509H605.671V135.837Z" fill="#333333"/>
<path d="M598.639 142.946H368.884V396.422H598.639V142.946Z" fill="#435989"/>
<path d="M616.148 403.509H350.203V412.834H616.148V403.509Z" fill="#FFC86B"/>
<path d="M567.805 212.022C565.142 205.826 558.348 199.087 551.042 200.192C544.79 201.137 542.275 207.104 542.577 212.749C540.795 208.281 538.787 203.31 535.476 199.953C538.388 198.521 543.606 195.352 543.679 191.992C543.736 189.423 541.282 188.073 539.018 187.94C533.479 187.616 530.251 192.574 531.129 197.099C527.445 195.588 522.496 194.95 519.678 196.536C516.897 198.101 517.987 201.279 520.283 202.738C524.54 205.442 530.515 203.949 534.472 201.503C537.704 204.864 539.966 209.934 542.239 213.793C539.735 212.379 535.017 211.044 531.87 210.862C522.805 210.336 516.145 216.902 516.842 227.738C517.257 234.17 523.386 241.798 531.551 246.29C539.023 250.399 546.692 250.704 553.406 248.873C559.768 247.138 564.82 242.686 567.96 236.726C571.638 229.742 570.847 219.1 567.805 212.022ZM521.745 201.781C519.442 200.298 519.415 198.418 522.002 197.765C524.236 197.201 527.975 197.832 529.688 198.358C530.508 198.61 532.467 200.168 532.754 200.516C530.037 201.946 524.246 203.391 521.745 201.781ZM534.428 198.978C532.754 196.959 532.733 193.59 534.09 191.647C536.269 188.529 542.481 190.85 540.165 194.432C538.979 196.264 536.27 197.61 534.428 198.978ZM562.889 240.594C558.503 244.857 553.996 247.387 549.549 247.907C542.398 248.742 528.012 246.637 521.182 233.844C518.191 228.241 518.261 217.798 523.701 214.501C525.541 213.387 527.506 212.649 529.529 212.546C534.199 212.307 541.512 214.798 544.004 215.924C544.636 216.209 543.653 208.439 545.414 205.743C549.019 200.22 555.7 201.537 560.12 205.099C565.602 209.518 567.493 215.866 568.034 222.647C568.51 228.614 567.421 236.186 562.889 240.594Z" fill="white"/>
<path d="M576.848 403.339H560.619C558.716 403.339 557.16 401.783 557.16 399.88C557.16 397.978 558.716 396.422 560.619 396.422H576.848C578.751 396.422 580.307 397.978 580.307 399.88C580.307 401.783 578.751 403.339 576.848 403.339Z" fill="white"/>
<path d="M513.594 257.672C510.886 256.682 506.659 256.272 501.623 258.152C503.755 255.947 507.133 253.336 508.348 251.931C509.357 250.762 508.334 250.093 507.02 251.102C502.801 254.347 493.735 263.787 493.528 263.981C490.009 261.701 484.151 261.765 480.704 264.393C477.347 266.954 474.568 271.782 471.585 274.7C468.041 278.165 462.808 278.472 458.855 281.371C448.675 288.836 445.656 305.86 456.596 314.136C468.84 323.398 485.916 317.983 488.825 305.99C489.632 302.661 490.459 297.458 491.795 294.04C494.455 287.238 496.517 280.251 497.125 276.74C498.167 270.725 499.08 269.106 494.679 264.784C495.745 263.897 496.102 263.287 496.903 262.534C497.36 262.104 498.368 261.393 499.583 260.64C502.655 263.071 506.515 264.469 510.407 264.81C512.457 264.989 516.822 265.005 517.658 262.322C518.465 259.74 516.524 258.742 513.594 257.672ZM494.331 280.236C492.869 284.816 491.999 287.788 489.7 293.604C487.974 297.972 487.766 306.215 484.895 309.943C479.646 316.755 473.559 319.2 462.55 315.682C455.618 313.467 450.69 303.617 452.274 296.225C453.699 289.583 456.82 283.303 462.877 281.284C469.954 278.925 471.538 277.418 474.235 274.294C478.361 269.515 485.774 259.846 492.959 265.314C498.787 269.751 495.524 276.498 494.331 280.236ZM515.387 262.237C512.96 265.771 504.614 261.845 501.023 259.791C503.21 258.554 509.529 257.855 510.849 258.275C514.73 259.092 516.317 260.882 515.387 262.237Z" fill="white"/>
<path d="M462.485 311.284C462.125 311.082 461.51 310.664 461.128 310.406C460.828 310.204 459.963 310.119 460.515 310.964C460.823 311.433 461.667 312.156 461.995 312.35C462.655 312.74 464.068 313.294 464.492 312.864C464.981 312.368 463.15 311.657 462.485 311.284Z" fill="white"/>
<path d="M564.878 330.119C563.435 328.554 561.276 328.551 559.327 328.849C557.038 329.2 554.886 329.877 552.537 329.945C547.841 330.078 543.36 326.438 537.383 327.249C530.201 328.224 525.44 330.146 519.933 337.45C515.359 343.518 515.707 348.655 514.042 354.417C512.974 358.115 509.771 360.05 508.373 363.449C507.671 365.156 507.495 367.296 508.726 368.818C510.064 370.472 512.219 370.617 514.182 370.445C516.489 370.244 518.685 369.639 521.029 369.793C522.285 369.875 523.495 370.147 524.674 370.525C524.682 370.528 524.682 370.535 524.689 370.539C525.5 370.881 529.934 373.211 532.783 373.508C538.757 374.131 543.205 372.718 547.748 370.024C551.254 367.944 554.498 365.24 556.823 361.857C560.414 356.632 559.223 350.693 560.508 344.835C561.334 341.076 564.405 338.936 565.578 335.454C566.168 333.706 566.205 331.559 564.878 330.119ZM559.687 341.62C558.537 344.222 558.389 347.085 558.209 349.882C557.965 353.674 557.992 359.789 548.515 367.318C543.496 371.306 535.982 371.969 533.958 371.87C532.275 371.786 529.752 371.353 528.651 370.723C526.281 369.366 523.87 368.373 521.138 368.156C518.274 367.931 509.728 370.716 509.544 365.665C509.438 362.747 513.38 360.125 514.656 357.682C515.971 355.16 516.306 352.312 516.666 349.533C517.112 346.094 520.047 338.642 525.908 333.905C530.418 330.26 535.385 329.4 536.914 329.119C539.815 328.586 542.429 329.117 544.948 330.266C547.433 331.398 549.798 331.551 552.538 331.59C555.41 331.629 563.758 328.296 564.27 333.323C564.566 336.227 560.8 339.099 559.687 341.62Z" fill="white"/>
<path d="M512.811 364.164C512.563 364.114 512.263 364.149 512.087 364.356C511.582 364.95 512.381 367.285 513.535 366.537C514.442 365.949 513.722 364.353 512.811 364.164Z" fill="white"/>
<path d="M302.194 121.478H187.181V201.6H302.194V121.478Z" fill="#FF5855"/>
<path d="M297.933 125.524H191.385V196.693H297.933V125.524Z" fill="white"/>
<path d="M290.316 133.991H200.193V188.182H290.316V133.991Z" fill="white"/>
<path d="M291.903 189.77H198.605V132.405H291.903V189.77ZM201.78 186.595H288.73V135.578H201.78V186.595Z" fill="#FFC86B"/>
<path d="M271.966 178.704L261.648 190.212H268.793L269.942 195.966L278.117 183.069L271.966 178.704Z" fill="#FF5855"/>
<path d="M284.268 178.704L294.586 190.212H287.443L286.293 195.966L278.117 183.069L284.268 178.704Z" fill="#FF5855"/>
<path d="M278.116 184.894C282.631 184.894 286.29 181.234 286.29 176.72C286.29 172.205 282.631 168.545 278.116 168.545C273.601 168.545 269.941 172.205 269.941 176.72C269.941 181.234 273.601 184.894 278.116 184.894Z" fill="#FF5855"/>
<path d="M282.496 176.72C282.496 179.139 280.535 181.1 278.118 181.1C275.698 181.1 273.739 179.139 273.739 176.72C273.739 174.302 275.7 172.341 278.118 172.341C280.535 172.341 282.496 174.3 282.496 176.72Z" fill="#FFC86B"/>
<path d="M281.423 149.934H208.938V151.785H281.423V149.934Z" fill="#B2B2B2"/>
<path d="M281.423 154.432H208.938V156.283H281.423V154.432Z" fill="#B2B2B2"/>
<path d="M281.423 159.342H208.938V161.193H281.423V159.342Z" fill="#B2B2B2"/>
<path d="M281.423 163.838H208.938V165.69H281.423V163.838Z" fill="#B2B2B2"/>
<path d="M261.288 174.868H229.014V176.72H261.288V174.868Z" fill="#B2B2B2"/>
<path d="M269.942 139.492H218.544V142.994H269.942V139.492Z" fill="#FF5855"/>
<path d="M172.672 163.793H51.5234V316.502H172.672V163.793Z" fill="white"/>
<path d="M168.049 168.409H56.1475V311.886H168.049V168.409Z" fill="#FFC86B"/>
<path d="M133.91 223.485C133.91 224.455 133.459 225.317 133.163 226.219C132.81 227.294 131.739 229.165 131.69 230.297C131.585 232.67 133.123 233.852 133.953 236.018C134.66 237.861 134.146 239.834 134.481 241.747C134.86 243.92 132.971 246.067 132.757 248.008C132.551 249.884 130.847 250.014 130.405 249.493C129.099 247.953 125.937 246.648 125.536 244.668C125.138 242.71 122.011 242.446 121.63 244.157C121.232 245.949 121.232 247.887 119.93 248.268C117.851 248.874 117.927 252.747 116.369 250.448C115.584 249.29 114.237 247.257 114.129 245.91C113.989 244.139 114.397 243.307 113.159 241.95C112.346 241.058 110.926 240.721 108.88 238.49C108.385 237.949 106.649 238.349 108.017 240.077C109.078 241.417 109.729 242.553 111.258 243.109C112.818 243.675 112.096 244.359 111.453 244.884C110.145 245.952 109.46 246.803 108.314 245.77C107.737 245.247 107.768 244.179 107.406 243.534C106.643 242.171 105.24 240.825 103.854 241.375C102.402 241.951 101.229 242.556 100.839 239.586C100.712 238.623 101.493 237.661 101.781 236.749C102.201 235.421 102.125 234.413 101.594 233.292C101.447 233.178 101.294 233.069 101.134 232.969C99.8427 232.161 98.5898 232.591 97.1861 232.369C96.3648 232.239 95.5808 231.853 95.4344 230.969C94.982 228.228 98.0836 227.208 100.043 226.787C103.552 226.031 102.053 223.352 104.651 222.278C107.141 221.251 110.108 223.026 112.346 221.166C114.209 219.619 115.62 218.634 117.875 217.795C118.723 217.48 119.668 217.125 120.673 216.874C118.321 216.324 115.871 216.035 113.351 216.035C95.6301 216.035 81.2627 230.4 81.2627 248.123C81.2627 265.845 95.6286 280.212 113.351 280.212C131.073 280.212 145.44 265.846 145.44 248.123C145.44 238.223 140.957 229.372 133.91 223.485ZM105.04 251.244C104.106 253.437 101.523 253.793 100.788 255.429C100.144 256.861 101.109 258.109 101.669 259.404C102.834 262.092 101.1 264.804 99.0587 268.227C97.5445 270.764 95.1611 266.385 93.7694 263.988C92.9062 262.503 93.6887 260.421 92.4015 259.302C90.8857 257.987 90.7872 256.089 90.7349 255.233C90.602 253.072 91.4592 252.082 91.1038 251.668C89.9867 250.368 89.3715 253.372 87.6333 252.92C86.1489 252.533 85.789 249.865 85.6591 248.862C85.3589 246.564 84.6197 242.643 86.4028 239.623C87.2808 238.136 88.0589 237.322 89.2834 236.959C91.2561 236.374 92.6882 236.787 94.6011 238.136C96.1393 239.222 97.7386 237.748 99.1633 239.897C100.001 241.16 99.568 243.827 101.19 244.12C102.114 244.287 104.71 243.059 105.396 243.633C108.298 246.061 105.837 249.37 105.04 251.244ZM131.561 268.803C129.73 269.641 127.919 271.03 126.082 272.202C124.105 273.462 122.334 269.314 122.177 266.929C122.116 265.993 120.978 263.947 120.772 262.972C120.395 261.197 123.445 260.122 124.999 260.14C127.743 260.172 127.462 258.382 129.594 258.247C130.722 258.175 131.84 258.148 132.969 258.145C134.022 258.142 136.005 257.573 137.06 260.058C137.878 261.987 137.212 263.98 136.228 265.819C135.166 267.796 133.453 267.937 131.561 268.803Z" fill="#0087C1"/>
<path d="M105.396 243.634C104.709 243.061 102.114 244.288 101.189 244.121C99.5677 243.829 100.001 241.161 99.163 239.898C97.7384 237.749 96.139 239.223 94.6009 238.137C92.6894 236.787 91.2558 236.375 89.2831 236.961C88.0586 237.324 87.2806 238.137 86.4025 239.625C84.6194 242.644 85.3601 246.566 85.6588 248.864C85.7887 249.866 86.1486 252.535 87.633 252.921C89.3712 253.374 89.9865 250.369 91.1035 251.67C91.4589 252.084 90.6017 253.074 90.7346 255.235C90.7869 256.089 90.8855 257.987 92.4012 259.304C93.6885 260.422 92.9059 262.504 93.7691 263.99C95.1624 266.387 97.5457 270.765 99.0585 268.228C101.1 264.805 102.834 262.094 101.669 259.406C101.109 258.112 100.144 256.864 100.788 255.43C101.522 253.795 104.106 253.438 105.039 251.246C105.837 249.37 108.298 246.061 105.396 243.634Z" fill="#FFF5CF"/>
<path d="M112.346 221.166C110.108 223.026 107.14 221.251 104.651 222.278C102.051 223.35 103.552 226.031 100.043 226.787C98.0833 227.208 94.9817 228.228 95.4341 230.969C95.5805 231.853 96.366 232.239 97.1858 232.369C98.5896 232.591 99.8425 232.161 101.134 232.969C101.294 233.069 101.446 233.178 101.594 233.291C102.124 234.413 102.2 235.421 101.781 236.749C101.493 237.661 100.712 238.623 100.839 239.586C101.228 242.556 102.402 241.95 103.854 241.375C105.239 240.825 106.643 242.171 107.406 243.534C107.768 244.179 107.736 245.247 108.314 245.77C109.46 246.803 110.145 245.952 111.453 244.884C112.095 244.36 112.818 243.676 111.258 243.109C109.728 242.553 109.076 241.417 108.017 240.077C106.649 238.349 108.384 237.949 108.88 238.49C110.924 240.722 112.345 241.058 113.159 241.95C114.396 243.307 113.987 244.139 114.129 245.91C114.237 247.257 115.584 249.29 116.369 250.448C117.927 252.747 117.851 248.874 119.929 248.268C121.231 247.889 121.231 245.95 121.63 244.157C122.011 242.446 125.138 242.708 125.535 244.668C125.937 246.648 129.098 247.952 130.405 249.493C130.847 250.014 132.549 249.882 132.757 248.008C132.971 246.067 134.861 243.92 134.48 241.747C134.146 239.834 134.66 237.86 133.953 236.018C133.121 233.85 131.583 232.67 131.689 230.297C131.74 229.167 132.809 227.294 133.163 226.219C133.46 225.317 133.91 224.457 133.91 223.485C130.135 220.331 125.625 218.028 120.673 216.874C119.668 217.125 118.723 217.48 117.874 217.795C115.62 218.634 114.208 219.619 112.346 221.166Z" fill="#FFF5CF"/>
<path d="M137.058 260.056C136.004 257.571 134.02 258.142 132.968 258.143C131.839 258.146 130.72 258.173 129.593 258.245C127.46 258.381 127.741 260.171 124.998 260.139C123.443 260.121 120.394 261.196 120.77 262.97C120.976 263.945 122.114 265.991 122.175 266.927C122.332 269.314 124.105 273.462 126.08 272.2C127.917 271.028 129.729 269.639 131.559 268.801C133.45 267.935 135.164 267.795 136.223 265.816C137.21 263.978 137.876 261.986 137.058 260.056Z" fill="#FFF5CF"/>
<path d="M129.168 253.607C128.944 251.977 127.414 251.429 127.126 250.569C125.87 246.812 124.926 248.718 125.089 249.563C125.272 250.514 125.885 251.518 126.301 252.381C126.594 252.987 127.008 254.25 127.542 254.68C129.03 255.877 129.33 254.769 129.168 253.607Z" fill="#FFF5CF"/>
<path d="M133.151 254.955C132.858 254.67 132.422 254.471 132.065 254.28C131.636 254.05 131.193 253.852 130.743 253.667C130.37 253.513 130.044 254.236 130.515 255.562C130.766 256.268 131.596 256.929 132.579 256.42C133.198 256.098 133.709 255.499 133.151 254.955Z" fill="#FFF5CF"/>
<path d="M132.615 251.637C132.136 252.418 132.585 253.274 133.292 253.72C134.034 254.189 134.8 254.082 135.227 253.275C135.624 252.527 136.083 251.271 136.074 250.419C136.069 250.053 135.099 249.318 134.53 250.492C134.144 251.285 132.818 251.307 132.615 251.637Z" fill="#FFF5CF"/>
<path d="M135.664 255.021C135.559 255.352 135.646 255.753 135.975 255.921C136.364 256.122 136.847 255.677 136.829 254.978C136.818 254.54 136.075 253.723 135.664 255.021Z" fill="#FFF5CF"/>
<path d="M140.799 257.79C140.715 256.85 139.51 255.121 138.153 255.236C137.73 255.399 137.412 255.732 137.484 256.241C137.57 256.852 138.71 256.928 138.81 257.879C138.864 258.388 138.601 259.017 139.049 259.335C140.116 260.095 140.88 258.694 140.799 257.79Z" fill="#FFF5CF"/>
<path d="M106.665 255.678C106.633 255.423 106.471 255.194 106.185 255.199C105.522 255.206 104.531 255.526 104.175 256.861C104.019 257.451 104.077 258.188 104.102 258.781C104.141 259.668 103.98 261.381 105.177 261.608C106.144 261.792 106.371 260.966 106.139 260.233C105.788 259.116 105.843 258.427 106.314 257.343C106.556 256.786 106.742 256.295 106.665 255.678Z" fill="#FFF5CF"/>
<path d="M136.243 231.474C136.096 231.234 135.877 231.05 135.716 230.82C135.377 230.338 135.397 229.963 135.244 229.436C135.064 228.811 133.899 227.874 133.536 228.829C133.533 228.837 133.534 228.846 133.533 228.853C133.288 229.259 133.303 229.882 133.452 230.321C133.691 231.026 134.165 231.646 134.445 232.339C134.669 232.891 134.802 233.518 135.2 233.974C135.317 234.11 135.51 234.134 135.674 234.099C136.753 233.878 136.678 232.179 136.243 231.474Z" fill="#71D3D3"/>
<path d="M108.879 205.892H72.4473V210.054H108.879V205.892Z" fill="#333333"/>
<path d="M116.902 205.892H108.878V210.054H116.902H151.75V205.892H116.902Z" fill="#333333"/>
<path d="M108.877 210.054H89.0654V227.082H108.877V210.054Z" fill="#4D4D4D"/>
<path d="M120.813 210.054H108.878V227.082H120.813H137.084V210.054H120.813Z" fill="#4D4D4D"/>
<path d="M134.086 230.009V205.892V204.186H132.38H103.674V205.892H132.38V230.147C131.556 230.672 130.428 231.956 130.394 235.063C130.363 237.934 133.287 243.843 133.287 243.843C133.287 243.843 136.124 239.142 136.124 234.598C136.124 231.495 134.938 230.399 134.086 230.009Z" fill="#FF5855"/>
<path d="M94.3084 183.665C92.0534 183.665 90.6348 182.196 90.6348 179.307C90.6348 176.064 92.6747 174.923 94.4487 174.923C96.3363 174.923 98.0342 176.089 98.0342 179.307C98.0327 182.208 96.526 183.665 94.3084 183.665ZM94.3965 182.385C96.0063 182.385 96.4618 180.865 96.4618 179.345C96.4618 178.053 96.1198 176.228 94.3711 176.228C92.7493 176.228 92.2177 177.735 92.2177 179.243C92.2177 180.687 92.5731 182.385 94.3965 182.385Z" fill="#FF5855"/>
<path d="M98.9488 182.473L99.4057 182.436C99.6208 182.423 99.7343 182.334 99.7343 182.081V176.189L99.013 176.152V175.075H101.293L104.879 180.89H104.904V176.191L104.068 176.154V175.077H107.159V176.103L106.704 176.14C106.514 176.154 106.399 176.267 106.399 176.533V183.501H104.916L101.254 177.596H101.229V182.385L102.052 182.423V183.499H98.9473L98.9488 182.473Z" fill="#FF5855"/>
<path d="M107.882 183.499V182.473L108.3 182.436C108.517 182.411 108.667 182.334 108.667 182.081V176.189L107.946 176.152V175.075H110.998V176.101L110.58 176.139C110.365 176.164 110.213 176.24 110.213 176.543V182.194H112.316C112.581 182.194 112.607 182.03 112.607 181.789V180.902L113.898 180.992V183.501L107.882 183.499Z" fill="#FF5855"/>
<path d="M115.473 176.189L114.752 176.152V175.075H117.818V176.101L117.4 176.139C117.185 176.164 117.032 176.24 117.032 176.543V182.384L117.755 182.421V183.498H114.689V182.472L115.108 182.434C115.35 182.409 115.475 182.333 115.475 182.016L115.473 176.189Z" fill="#FF5855"/>
<path d="M118.578 182.473L119.034 182.436C119.249 182.423 119.364 182.334 119.364 182.081V176.189L118.641 176.152V175.075H120.921L124.507 180.89H124.532V176.191L123.696 176.154V175.077H126.787V176.103L126.33 176.14C126.14 176.154 126.025 176.267 126.025 176.533V183.501H124.543L120.881 177.596H120.856V182.385L121.678 182.423V183.499H118.575V182.473H118.578Z" fill="#FF5855"/>
<path d="M127.538 183.499V182.473L127.956 182.436C128.173 182.411 128.324 182.334 128.324 182.081V176.189L127.602 176.152V175.075H133.405V177.178L132.114 177.266V176.76C132.114 176.518 132.088 176.367 131.746 176.367H129.871V178.534H132.798V179.826H129.871V182.196H131.911C132.239 182.196 132.264 182.043 132.264 181.791V181.158L133.556 181.246V183.501L127.538 183.499Z" fill="#FF5855"/>
<path d="M78.9717 198.708V197.682L79.3898 197.644C79.6049 197.619 79.7572 197.543 79.7572 197.289V191.398L79.0359 191.36V190.284H84.8375V192.386L83.5458 192.474V191.968C83.5458 191.726 83.5204 191.575 83.1784 191.575H81.3043V193.742H84.2297V195.034H81.3043V197.404H83.3442C83.6742 197.404 83.6996 197.252 83.6996 196.999V196.366L84.9913 196.454V198.709L78.9717 198.708Z" fill="#FF5855"/>
<path d="M85.9297 197.681L86.3478 197.644C86.5629 197.619 86.7152 197.543 86.7152 197.289V191.398L85.9924 191.36V190.284H89.4644C91.8851 190.284 93.4173 191.563 93.4173 194.199C93.4173 197.519 91.567 198.709 89.5286 198.709H85.9297V197.681ZM88.2608 197.492H89.554C90.9727 197.492 91.8597 196.452 91.8597 194.426C91.8597 192.146 90.7576 191.513 89.3897 191.513H88.2623L88.2608 197.492Z" fill="#FF5855"/>
<path d="M96.4725 195.97C96.4725 197.211 97.1191 197.58 98.1316 197.58C99.1455 197.58 99.7787 197.074 99.7787 196.034V191.398L99.044 191.36V190.284H102.047V191.309L101.629 191.347C101.402 191.372 101.262 191.474 101.262 191.726V196.249C101.262 197.908 100.007 198.872 98.0808 198.872C96.0036 198.872 94.9388 198.035 94.9388 196.046V191.398L94.2041 191.36V190.284H97.2699V191.309L96.8518 191.347C96.6114 191.372 96.4725 191.448 96.4725 191.765V195.97Z" fill="#FF5855"/>
<path d="M106.763 191.384C105.167 191.384 104.368 192.525 104.368 194.438C104.368 196.427 105.026 197.656 106.787 197.617C107.142 197.617 107.471 197.58 107.713 197.502C107.941 197.426 107.979 197.325 107.979 197.084V196.07L109.27 196.16V198.35C108.573 198.718 107.572 198.87 106.761 198.87C104.19 198.87 102.783 197.426 102.783 194.538C102.783 191.232 104.81 190.128 106.761 190.128C107.51 190.128 108.383 190.292 109.143 190.648V192.801L107.852 192.889V191.901C107.852 191.659 107.814 191.559 107.586 191.483C107.345 191.409 107.015 191.384 106.763 191.384Z" fill="#FF5855"/>
<path d="M112.806 191.384L112.007 191.308V190.282H114.909L117.494 197.592H117.506L118.227 197.629V198.706H114.959V197.68L115.44 197.643C115.706 197.617 115.833 197.541 115.745 197.262L115.479 196.476H112.515L112.136 197.592L112.896 197.629V198.706H109.969V197.68L110.387 197.643C110.603 197.617 110.678 197.528 110.768 197.287L112.806 191.384ZM112.82 195.312H115.176L114.035 191.702H113.998L112.82 195.312Z" fill="#FF5855"/>
<path d="M120.17 191.537H119.183C118.917 191.537 118.891 191.714 118.891 191.929V192.525L117.6 192.436V190.282H124.226V192.436L122.932 192.525V191.929C122.932 191.689 122.907 191.537 122.565 191.537H121.703V197.592L122.704 197.629V198.706H119.13V197.68L119.802 197.643C120.043 197.617 120.17 197.541 120.17 197.287V191.537Z" fill="#FF5855"/>
<path d="M125.607 191.398L124.886 191.36V190.284H127.951V191.309L127.533 191.347C127.318 191.372 127.166 191.448 127.166 191.751V197.592L127.887 197.629V198.706H124.821V197.68L125.239 197.643C125.48 197.617 125.607 197.541 125.607 197.225V191.398Z" fill="#FF5855"/>
<path d="M132.486 198.872C130.231 198.872 128.812 197.402 128.812 194.514C128.812 191.271 130.852 190.13 132.626 190.13C134.514 190.13 136.212 191.296 136.212 194.514C136.212 197.416 134.704 198.872 132.486 198.872ZM132.576 197.592C134.186 197.592 134.641 196.072 134.641 194.551C134.641 193.26 134.299 191.435 132.55 191.435C130.929 191.435 130.397 192.942 130.397 194.45C130.397 195.895 130.751 197.592 132.576 197.592Z" fill="#FF5855"/>
<path d="M137.127 197.681L137.582 197.644C137.799 197.631 137.912 197.543 137.912 197.289V191.398L137.191 191.36V190.284H139.471L143.057 196.099H143.082V191.399L142.246 191.362V190.285H145.337V191.311L144.88 191.348C144.691 191.362 144.576 191.475 144.576 191.741V198.709H143.094L139.433 192.804H139.407V197.593L140.232 197.631V198.707H137.127V197.681Z" fill="#FF5855"/>
<path d="M150.056 289.656H75.1162V294.134H150.056V289.656Z" fill="#FF5855"/>
<path d="M150.056 299.958H75.1162V304.438H150.056V299.958Z" fill="#FF5855"/>
<path d="M128.121 350.946H75.3438V421.173H128.121V350.946Z" fill="#F44040"/>
<path d="M75.3445 350.946H64.2207V421.173H75.3445V350.946Z" fill="#FF5855"/>
<path d="M75.3445 354.637H64.2207V356.489H75.3445V354.637Z" fill="#FFC86B"/>
<path d="M75.3445 359.166H64.2207V361.018H75.3445V359.166Z" fill="#FFC86B"/>
<path d="M75.3445 363.869H64.2207V365.721H75.3445V363.869Z" fill="#FFC86B"/>
<path d="M75.3445 406.738H64.2207V408.59H75.3445V406.738Z" fill="#FFC86B"/>
<path d="M75.3445 411.267H64.2207V413.119H75.3445V411.267Z" fill="#FFC86B"/>
<path d="M75.3445 415.97H64.2207V417.821H75.3445V415.97Z" fill="#FFC86B"/>
<path d="M125.314 353.734H78.459V417.823H125.314V353.734Z" fill="#FFC86B"/>
<path d="M122.196 356.489H81.4209V359.165H122.196V356.489Z" fill="white"/>
<path d="M122.196 410.987H81.4209V413.4H122.196V410.987Z" fill="white"/>
<path d="M122.274 406.457H81.499V408.87H122.274V406.457Z" fill="white"/>
<path d="M115.545 398.81C112.887 394.911 107.99 386.923 106.309 384.168C105.971 383.615 105.729 382.922 105.729 382.062C105.729 378.517 105.729 368.491 105.729 368.491H102.256H98.839C98.839 368.491 98.839 379.067 98.839 382.592C98.839 383.058 98.7225 383.379 98.5284 383.699C97.2023 385.876 91.8338 394.661 89.0054 398.811C87.7704 400.621 89.5102 402.693 91.0199 402.693H102.275H113.53C115.04 402.693 116.778 400.62 115.545 398.81Z" fill="white"/>
<path d="M98.3336 368.815H102.336H106.336C106.92 368.815 107.394 368.342 107.394 367.758C107.394 367.174 106.92 366.7 106.336 366.7H102.336H98.3336C97.7498 366.7 97.2764 367.174 97.2764 367.758C97.2779 368.342 97.7498 368.815 98.3336 368.815Z" fill="white"/>
<path d="M113.707 398.483C110.994 394.503 105.158 384.795 105.158 384.795H102.276H99.3939C99.3939 384.795 93.5982 394.397 90.8849 398.377C89.853 399.891 90.7236 401.098 91.9869 401.098H102.276H112.717C113.979 401.099 114.739 399.997 113.707 398.483Z" fill="#DC4437"/>
<path d="M105.001 384.526C104.779 384.139 104.661 383.965 104.583 383.497C104.462 382.769 104.541 382.177 104.541 381.099C104.541 377.947 104.541 368.815 104.541 368.815H102.518H102.03H100.006C100.006 368.815 100.006 377.947 100.006 381.099C100.006 382.177 100.087 382.769 99.9643 383.497C99.8867 383.965 99.7687 384.138 99.5462 384.526C99.373 384.828 98.7084 385.922 98.4814 386.296H102.03H102.518H106.066C105.838 385.921 105.175 384.828 105.001 384.526Z" fill="#FBCB43"/>
<path d="M102.274 371.031C102.274 371.528 101.87 371.931 101.373 371.931C100.876 371.931 100.473 371.528 100.473 371.031C100.473 370.533 100.876 370.13 101.373 370.13C101.87 370.13 102.274 370.533 102.274 371.031Z" fill="white"/>
<path d="M108.871 363.146C108.871 364.085 108.109 364.845 107.171 364.845C106.232 364.845 105.472 364.084 105.472 363.146C105.472 362.207 106.233 361.447 107.171 361.447C108.11 361.447 108.871 362.207 108.871 363.146Z" fill="white"/>
<path d="M97.0112 363.643C97.0112 364.456 96.3526 365.114 95.5403 365.114C94.7279 365.114 94.0693 364.456 94.0693 363.643C94.0693 362.831 94.7279 362.172 95.5403 362.172C96.3526 362.172 97.0112 362.831 97.0112 363.643Z" fill="white"/>
<path d="M117.523 366.702C117.523 367.514 116.864 368.173 116.052 368.173C115.24 368.173 114.581 367.514 114.581 366.702C114.581 365.889 115.24 365.231 116.052 365.231C116.864 365.229 117.523 365.888 117.523 366.702Z" fill="white"/>
<path d="M111.869 371.931C111.869 372.726 111.226 373.37 110.431 373.37C109.637 373.37 108.993 372.726 108.993 371.931C108.993 371.137 109.637 370.493 110.431 370.493C111.226 370.493 111.869 371.137 111.869 371.931Z" fill="white"/>
<path d="M98.6617 350.945C98.6617 348.458 100.499 347.339 102.332 346.842C101.235 346.61 99.8624 346.467 98.1391 346.467C98.1391 346.467 90.8232 345.982 90.8232 350.947C90.8232 353.625 95.4093 353.362 99.6339 352.552C99.0261 352.21 98.6617 351.695 98.6617 350.945Z" fill="#0087C1"/>
<path d="M149.717 350.946H96.9395V421.173H149.717V350.946Z" fill="#435989"/>
<path d="M96.9402 350.945H85.8164V421.172H96.9402V350.945Z" fill="#0087C1"/>
<path d="M96.9402 354.637H85.8164V356.489H96.9402V354.637Z" fill="#FFC86B"/>
<path d="M96.9402 359.166H85.8164V361.018H96.9402V359.166Z" fill="#FFC86B"/>
<path d="M96.9402 363.869H85.8164V365.72H96.9402V363.869Z" fill="#FFC86B"/>
<path d="M96.9402 406.738H85.8164V408.59H96.9402V406.738Z" fill="#FFC86B"/>
<path d="M96.9402 411.267H85.8164V413.119H96.9402V411.267Z" fill="#FFC86B"/>
<path d="M96.9402 415.97H85.8164V417.821H96.9402V415.97Z" fill="#FFC86B"/>
<path d="M146.911 353.733H100.057V417.823H146.911V353.733Z" fill="#FFC86B"/>
<path d="M143.791 356.49H103.016V359.166H143.791V356.49Z" fill="#435989"/>
<path d="M143.791 410.986H103.016V413.4H143.791V410.986Z" fill="#435989"/>
<path d="M106.674 346.467C104.671 346.467 98.6621 346.467 98.6621 346.467C105.63 346.467 105.281 350.947 105.281 350.947V374.462H113.119V350.947C113.119 350.947 112.683 346.467 106.674 346.467Z" fill="#435989"/>
<path d="M118.038 364.359L116.3 364.194V361.959H122.618L128.248 377.881H128.276L129.849 377.964V380.309H122.73V378.073L123.778 377.991C124.358 377.936 124.634 377.77 124.44 377.162L123.86 375.451H117.403L116.576 377.879L118.231 377.963V380.307H111.855V378.072L112.766 377.99C113.235 377.934 113.401 377.74 113.594 377.216L118.038 364.359ZM118.065 372.914H123.197L120.714 365.048H120.632L118.065 372.914Z" fill="#435989"/>
<path d="M111.832 385.528C109.206 385.528 107.892 387.405 107.892 390.553C107.892 393.826 108.976 395.848 111.873 395.786C112.457 395.786 112.999 395.724 113.396 395.599C113.771 395.473 113.834 395.308 113.834 394.91V393.242L115.96 393.389V396.997C114.813 397.6 113.166 397.851 111.831 397.851C107.599 397.851 105.284 395.473 105.284 390.72C105.284 385.278 108.62 383.466 111.831 383.466C113.061 383.466 114.5 383.737 115.751 384.32V387.865L113.624 388.011V386.385C113.624 385.988 113.562 385.822 113.187 385.697C112.791 385.57 112.249 385.528 111.832 385.528Z" fill="white"/>
<path d="M113.882 404.919L114.623 404.852C115.005 404.807 115.274 404.673 115.274 404.223V393.788L113.994 393.719V391.812H120.145C124.432 391.812 127.147 394.08 127.147 398.749C127.147 404.629 123.871 406.739 120.257 406.739H113.883L113.882 404.919ZM118.011 404.583H120.3C122.813 404.583 124.384 402.743 124.384 399.152C124.384 395.112 122.431 393.989 120.007 393.989H118.009L118.011 404.583Z" fill="#435989"/>
<path d="M134.021 374.597C137.139 374.597 139.981 375.535 139.981 379.205C139.981 381.027 138.933 382.295 137.442 383.069C139.512 383.593 140.92 385.028 140.92 387.456C140.92 391.041 138.437 392.947 133.857 392.947H126.104V390.711L127.014 390.629C127.483 390.574 127.815 390.408 127.815 389.857V377.025L126.242 376.941V374.597H134.021ZM131.179 382.131H133.221C135.594 382.131 136.56 381.027 136.56 379.564C136.56 377.578 135.208 377.135 133.415 377.135H131.179V382.131ZM131.179 390.353H133.773C136.478 390.353 137.36 389.112 137.36 387.429C137.36 385.58 136.091 384.587 133.911 384.587H131.179V390.353Z" fill="white"/>
<path d="M238.319 401.796H201.071V419.548H238.319V401.796Z" fill="#435989"/>
<path d="M242.773 417.817H196.615V421.28H242.773V417.817Z" fill="white"/>
<path d="M294.385 300.962C294.385 298.225 292.058 296.006 289.189 296.006H150.2C147.332 296.006 145.005 298.225 145.005 300.962V387.544H294.385V300.962Z" fill="#333333"/>
<path d="M150.2 403.817H289.189C292.058 403.817 294.385 401.598 294.385 398.86V387.544H145.005V398.86C145.005 401.598 147.332 403.817 150.2 403.817Z" fill="white"/>
<path d="M288.682 302.042H150.71V380.309H288.682V302.042Z" fill="white"/>
<path d="M225.696 397.579H213.694C212.595 397.579 211.694 396.679 211.694 395.58V395.382C211.694 394.282 212.595 393.383 213.694 393.383H225.696C226.796 393.383 227.695 394.283 227.695 395.382V395.58C227.695 396.68 226.795 397.579 225.696 397.579Z" fill="#435989"/>
<path d="M283.059 306.009H156.36V308.932H283.059V306.009Z" fill="#FF5855"/>
<path d="M216 314.596H156.36V318.083H216V314.596Z" fill="#FF5855"/>
<path d="M215.998 323.325H156.358V324.787H215.998V323.325Z" fill="#B2B9C1"/>
<path d="M215.998 328.069H156.358V329.531H215.998V328.069Z" fill="#B2B9C1"/>
<path d="M215.998 332.813H156.358V334.275H215.998V332.813Z" fill="#B2B9C1"/>
<path d="M215.998 337.557H156.358V339.019H215.998V337.557Z" fill="#B2B9C1"/>
<path d="M215.998 342.302H156.358V343.764H215.998V342.302Z" fill="#B2B9C1"/>
<path d="M215.998 347.045H156.358V348.507H215.998V347.045Z" fill="#B2B9C1"/>
<path d="M281.742 347.045H222.103V348.507H281.742V347.045Z" fill="#B2B9C1"/>
<path d="M281.742 342.302H222.103V343.764H281.742V342.302Z" fill="#B2B9C1"/>
<path d="M281.742 356.46H222.103V357.922H281.742V356.46Z" fill="#B2B9C1"/>
<path d="M281.742 351.716H222.103V353.178H281.742V351.716Z" fill="#B2B9C1"/>
<path d="M281.742 366.022H222.103V367.484H281.742V366.022Z" fill="#B2B9C1"/>
<path d="M281.742 361.278H222.103V362.74H281.742V361.278Z" fill="#B2B9C1"/>
<path d="M215.998 351.789H156.358V353.251H215.998V351.789Z" fill="#B2B9C1"/>
<path d="M187.6 356.533H156.358V357.995H187.6V356.533Z" fill="#B2B9C1"/>
<path d="M187.6 361.278H156.358V362.74H187.6V361.278Z" fill="#B2B9C1"/>
<path d="M187.6 366.022H156.358V367.484H187.6V366.022Z" fill="#B2B9C1"/>
<path d="M187.6 370.766H156.358V372.228H187.6V370.766Z" fill="#B2B9C1"/>
<path d="M281.741 314.78H222.102V337.114H281.741V314.78Z" fill="#FF5855"/>
<path d="M283.045 373.344L285.559 372.587L277.921 366.097L280.074 375.885L282.02 373.925L283.772 376.631C283.884 376.805 284.073 376.899 284.266 376.899C284.377 376.899 284.486 376.868 284.584 376.805C284.856 376.629 284.935 376.265 284.759 375.993L283.045 373.344Z" fill="#4D4D4D"/>
<path d="M215.997 356.533H191.566V372.227H215.997V356.533Z" fill="#FF5855"/>
<path d="M280.113 457.826V569.956H85.6063V457.826H74.7109V605.318H85.6063V582.246H280.113V605.318H291.008V457.826H280.113Z" fill="#0087C1"/>
<path d="M299.283 430.522H62.6016V463.163H299.283V430.522Z" fill="#435989"/>
<path d="M324.054 421.174H37.8311V430.939H324.054V421.174Z" fill="#0087C1"/>
<path d="M108.646 489.8H93.3525V569.956H108.646V489.8Z" fill="#EFAC4D"/>
<path d="M162.886 489.8H108.646V569.956H162.886V489.8Z" fill="#FFC86B"/>
<path d="M105.866 505.923H96.1338V552.283H105.866V505.923Z" fill="#FF5855"/>
<path d="M108.646 493.608H93.3525V495.915H108.646V493.608Z" fill="#FF5855"/>
<path d="M108.646 498.957H93.3525V501.264H108.646V498.957Z" fill="#FF5855"/>
<path d="M108.646 557.169H93.3525V559.476H108.646V557.169Z" fill="#FF5855"/>
<path d="M108.646 562.518H93.3525V564.825H108.646V562.518Z" fill="#FF5855"/>
<path d="M157.55 495.915H115.378V498.957H157.55V495.915Z" fill="#FF5855"/>
<path d="M157.55 560.998H115.378V564.039H157.55V560.998Z" fill="#FF5855"/>
<path d="M157.55 505.923H115.378V519.434H157.55V505.923Z" fill="white"/>
<path d="M230.496 553.305H139.664V569.956H230.496V553.305Z" fill="#435989"/>
<path d="M158.497 553.305H150.877V569.923H158.497V553.305Z" fill="#FFC86B"/>
<path d="M164.488 553.305H162.454V569.923H164.488V553.305Z" fill="#FFC86B"/>
<path d="M169.968 553.305H167.935V569.923H169.968V553.305Z" fill="#FFC86B"/>
<path d="M220.023 553.305H212.402V569.923H220.023V553.305Z" fill="#FFC86B"/>
<path d="M240.232 542.056H149.4V553.305H240.232V542.056Z" fill="#FF5855"/>
<path d="M168.234 542.056H160.613V553.283H168.234V542.056Z" fill="#FFC86B"/>
<path d="M229.76 542.056H222.14V553.283H229.76V542.056Z" fill="#FFC86B"/>
<path d="M217.849 546.1H172.45V549.261H217.849V546.1Z" fill="#FFC86B"/>
<path d="M227.219 529.878H129.659V541.961H227.219V529.878Z" fill="#0087C1"/>
<path d="M149.889 529.878H141.704V541.937H149.889V529.878Z" fill="#FF5855"/>
<path d="M215.969 529.878H207.784V541.937H215.969V529.878Z" fill="#FF5855"/>
<path d="M203.175 534.221H154.415V537.616H203.175V534.221Z" fill="white"/>
<path d="M626.164 464.076H389.482V584.14H626.164V464.076Z" fill="#435989"/>
<path d="M626.163 454.728H389.642V464.492H626.163V454.728Z" fill="#FFC86B"/>
<path d="M401.798 578.667V597.311C401.798 599.775 403.814 601.791 406.278 601.791H410.665C413.129 601.791 415.145 599.775 415.145 597.311V578.667H401.798Z" fill="#435989"/>
<path d="M598.996 578.667V597.311C598.996 599.775 601.012 601.791 603.476 601.791H607.863C610.327 601.791 612.343 599.775 612.343 597.311V578.667H598.996Z" fill="#435989"/>
<path d="M501.022 473.669H401.281V573.91H501.022V473.669Z" fill="#0087C1"/>
<path d="M614.155 473.669H514.414V573.91H614.155V473.669Z" fill="#0087C1"/>
<path d="M486.328 529.488C489.627 529.488 492.301 526.814 492.301 523.515C492.301 520.216 489.627 517.542 486.328 517.542C483.029 517.542 480.354 520.216 480.354 523.515C480.354 526.814 483.029 529.488 486.328 529.488Z" fill="#FFC86B"/>
<path d="M526.395 529.488C529.694 529.488 532.369 526.814 532.369 523.515C532.369 520.216 529.694 517.542 526.395 517.542C523.096 517.542 520.422 520.216 520.422 523.515C520.422 526.814 523.096 529.488 526.395 529.488Z" fill="#FFC86B"/>
<path d="M609.491 442.645H511.932V454.728H609.491V442.645Z" fill="#FF5855"/>
<path d="M532.162 442.645H523.977V454.704H532.162V442.645Z" fill="white"/>
<path d="M598.243 442.645H590.058V454.704H598.243V442.645Z" fill="white"/>
<path d="M585.45 446.989H536.689V450.385H585.45V446.989Z" fill="white"/>
<path d="M429.161 443.163H423.064C421.782 443.163 420.732 442.115 420.732 440.832V440.151C420.732 438.87 421.781 437.82 423.064 437.82H429.161C430.442 437.82 431.492 438.868 431.492 440.151V440.832C431.492 442.115 430.444 443.163 429.161 443.163Z" fill="#333333"/>
<path d="M440.878 422.937C440.878 431.092 437.741 440.966 426.112 440.966C414.566 440.966 411.345 431.092 411.345 422.937C411.345 414.782 417.956 411.433 426.112 411.433C434.267 411.433 440.878 414.782 440.878 422.937Z" fill="#333333"/>
<path d="M426.112 437.705C434.268 437.705 440.88 431.093 440.88 422.938C440.88 414.782 434.268 408.17 426.112 408.17C417.956 408.17 411.345 414.782 411.345 422.938C411.345 431.093 417.956 437.705 426.112 437.705Z" fill="#435989"/>
<path d="M432.982 422.937C432.982 426.73 429.907 429.807 426.113 429.807C422.318 429.807 419.243 426.73 419.243 422.937C419.243 419.144 422.318 416.068 426.113 416.068C429.907 416.068 432.982 419.144 432.982 422.937Z" fill="#EDEDED"/>
<path d="M429.373 422.937C429.373 424.738 427.913 426.199 426.112 426.199C424.311 426.199 422.851 424.738 422.851 422.937C422.851 421.137 424.311 419.676 426.112 419.676C427.913 419.676 429.373 421.137 429.373 422.937Z" fill="#333333"/>
<path d="M427.488 422.938C427.488 423.698 426.871 424.314 426.111 424.314C425.351 424.314 424.734 423.698 424.734 422.938C424.734 422.178 425.351 421.561 426.111 421.561C426.871 421.562 427.488 422.178 427.488 422.938Z" fill="white"/>
<path d="M426.114 413.771C427.043 413.771 427.797 413.018 427.797 412.088C427.797 411.159 427.043 410.405 426.114 410.405C425.184 410.405 424.431 411.159 424.431 412.088C424.431 413.018 425.184 413.771 426.114 413.771Z" fill="#FF5855"/>
<path d="M427.49 441.978H424.736V446.319H427.49V441.978Z" fill="#333333"/>
<path d="M441.741 454.801H410.485C409.204 454.801 408.154 453.753 408.154 452.47V448.648C408.154 447.367 409.203 446.317 410.485 446.317H441.741C443.022 446.317 444.072 447.366 444.072 448.648V452.47C444.072 453.753 443.022 454.801 441.741 454.801Z" fill="#333333"/>
<path d="M433.666 449.198H418.56V451.387H433.666V449.198Z" fill="#EDEDED"/>
<path d="M570.162 422.938H565.949H537.157C537.162 423.381 537.195 423.816 537.227 424.252C536.011 424.125 534.489 424.205 533.469 425.149C532.415 426.124 532.155 427.731 532.696 429.923C534.24 436.191 540.066 436.939 542.482 436.973C543.691 438.299 545.07 439.409 546.573 440.263H546.332V442.639H560.99V440.263H560.751C566.236 437.161 570.056 430.594 570.162 422.938ZM534.092 429.583C533.687 427.936 533.805 426.801 534.445 426.209C535.126 425.578 536.367 425.57 537.379 425.714C537.881 429.423 539.258 432.78 541.257 435.484C538.872 435.231 535.203 434.093 534.092 429.583Z" fill="white"/>
<path d="M317.357 628.131C356.545 628.131 388.313 625.795 388.313 622.914C388.313 620.032 356.545 617.696 317.357 617.696C278.169 617.696 246.4 620.032 246.4 622.914C246.4 625.795 278.169 628.131 317.357 628.131Z" fill="#CECECE"/>
<path d="M317.177 146.971C302.117 147.032 287.569 153.469 285.317 176.532C282.844 201.87 266.449 210.553 259.587 225.882C252.725 241.211 271.88 254.009 285.317 243.317C298.754 232.625 326.486 256.296 346.01 252.008C365.533 247.72 356.505 227.135 350.215 212.555C343.211 196.318 347.071 172.298 347.071 172.298L324.577 146.574" fill="#191919"/>
<path d="M387.7 258.333C387.7 258.333 390.6 244.204 400.962 238.172C410.276 232.75 403.077 243.393 400.907 246.978C400.907 246.978 407.424 244.715 410.117 250.662C412.81 256.61 405.622 262.234 400.317 262.319C395.012 262.405 387.7 258.333 387.7 258.333Z" fill="#F7B289"/>
<path d="M402.605 262.824C402.605 262.824 389.237 308.771 366.309 308.119C353.728 307.76 343.473 294.722 337.117 283.93C332.584 276.234 330.029 269.675 330.029 269.675L349.626 240.018L369.319 279.934L387.698 254.984L402.605 262.824Z" fill="#D8563C"/>
<path d="M366.309 308.119C353.728 307.76 343.473 294.722 337.117 283.93C339.223 278.458 341.71 272.711 341.71 272.711L345.833 255.774C349.733 301.804 366.309 308.119 366.309 308.119Z" fill="#BC341E"/>
<path d="M355.678 622.176H330.366C330.366 622.176 326.064 618.375 324.637 606.676C323.203 594.977 315.318 600.466 312.691 593.063C310.248 586.163 313.464 580.619 318.208 579.216C311.853 517.123 314.129 516.122 312.309 472.964C310.67 434.088 315.559 395.983 315.559 395.983L347.467 416.76C347.467 416.76 339.809 475.508 337.422 520.402C335.034 565.297 331.03 595.931 340.108 605.482C342.884 608.407 345.371 610.3 347.504 611.763C352.343 615.083 355.345 616.207 355.678 622.176Z" fill="#F7B289"/>
<path d="M355.678 622.175H330.366C330.366 622.175 326.064 618.375 324.637 606.676C323.203 594.977 315.318 600.466 312.691 593.062C310.248 586.163 313.464 580.619 318.208 579.216C318.208 579.216 323.796 583.031 326.841 594.136C329.794 604.917 329.214 617.887 347.504 611.762C352.343 615.083 355.345 616.206 355.678 622.175Z" fill="#132936"/>
<path d="M318.605 591.095H314.485V622.176H318.605V591.095Z" fill="#132936"/>
<path d="M319.31 622.176H293.998C293.998 622.176 289.696 618.375 288.269 606.676C286.834 594.977 278.95 600.466 276.323 593.063C273.88 586.163 277.096 580.619 281.84 579.216C275.485 517.123 277.761 516.122 275.941 472.964C274.302 434.088 279.191 395.983 279.191 395.983L311.098 416.76C311.098 416.76 303.441 475.508 301.053 520.402C298.665 565.297 294.662 595.931 303.739 605.482C306.515 608.407 309.002 610.3 311.135 611.763C315.975 615.083 318.978 616.207 319.31 622.176Z" fill="#F7B289"/>
<path d="M319.31 622.176H293.998C293.998 622.176 289.696 618.375 288.269 606.676C286.834 594.977 278.95 600.466 276.323 593.063C273.88 586.163 277.096 580.619 281.84 579.216C281.84 579.216 287.428 583.031 290.473 594.136C293.426 604.917 292.846 617.887 311.136 611.762C315.975 615.083 318.978 616.207 319.31 622.176Z" fill="#132936"/>
<path d="M282.236 591.095H278.117V622.176H282.236V591.095Z" fill="#132936"/>
<path d="M351.706 434.726C300.431 449.311 267.472 434.726 267.472 434.726C267.472 434.726 270.373 423.172 267.721 380.296C266.19 355.562 272.06 340.038 277.304 331.327C281.148 324.937 284.654 322.213 284.654 322.213L340.199 320.814L345.519 320.679C345.519 320.679 345.574 321.211 345.675 322.184C345.684 322.226 345.688 322.273 345.692 322.319C346.403 329.081 349.164 355.262 351.075 372.841C353.283 393.173 351.706 434.726 351.706 434.726Z" fill="#0F2532"/>
<path d="M345.802 322.213C345.802 322.213 345.769 322.247 345.692 322.319C344.432 323.448 331.547 333.627 277.304 331.327C281.148 324.937 284.653 322.213 284.653 322.213L340.199 320.814L345.675 322.184L345.802 322.213Z" fill="#071116"/>
<path d="M323.471 204.711V247.054L302.894 247.02V204.711H323.471Z" fill="#F7B289"/>
<path d="M323.471 218.319C323.471 218.319 320.481 225.005 302.894 225.14V204.711H307.681L322.076 214.848L323.471 218.319Z" fill="#E58353"/>
<path d="M345.05 161.952C345.05 161.952 352.625 220.221 320.59 218.311C288.554 216.401 294.442 159.769 294.442 159.769L311.308 153.538L336.271 153.469L345.05 161.952Z" fill="#F7B289"/>
<path d="M351.7 171.524C352.021 173.545 352.122 175.549 352.016 177.523C348.289 179.403 340.394 182.346 329.206 181.026C329.206 181.026 332.694 172.838 329.426 160.703C329.426 160.703 329.735 173.015 324.499 179.873C324.499 179.873 317.13 180.949 308.267 180.148C308.267 180.148 310.48 173.156 308.441 164.741C308.441 164.741 307.202 183.367 291.433 190.561C289.964 187.819 288.93 184.803 288.418 181.584C285.804 165.138 297.85 149.552 315.327 146.773C332.8 143.995 349.085 155.078 351.7 171.524Z" fill="#191919"/>
<path d="M338.952 193.986C338.952 195.561 337.909 196.837 336.624 196.837C335.338 196.837 334.296 195.561 334.296 193.986C334.296 192.412 335.338 191.136 336.624 191.136C337.909 191.136 338.952 192.412 338.952 193.986Z" fill="#191919"/>
<path d="M339.514 188.578C339.367 188.578 339.219 188.537 339.088 188.449C337.629 187.481 335.614 187.481 334.155 188.449C333.799 188.686 333.32 188.588 333.084 188.233C332.848 187.878 332.945 187.399 333.3 187.163C334.284 186.509 335.432 186.164 336.621 186.164C337.81 186.164 338.959 186.509 339.942 187.163C340.297 187.399 340.394 187.878 340.158 188.233C340.009 188.457 339.765 188.578 339.514 188.578Z" fill="#191919"/>
<path d="M320.237 193.622C320.237 195.196 319.195 196.473 317.909 196.473C316.623 196.473 315.581 195.196 315.581 193.622C315.581 192.048 316.623 190.772 317.909 190.772C319.195 190.772 320.237 192.048 320.237 193.622Z" fill="#191919"/>
<path d="M320.8 188.214C320.653 188.214 320.504 188.173 320.373 188.085C318.914 187.117 316.9 187.116 315.44 188.085C315.085 188.321 314.606 188.224 314.37 187.869C314.133 187.514 314.23 187.034 314.585 186.799C315.569 186.145 316.718 185.8 317.906 185.8C319.095 185.8 320.244 186.145 321.228 186.799C321.583 187.035 321.68 187.514 321.444 187.869C321.295 188.093 321.05 188.214 320.8 188.214Z" fill="#191919"/>
<path d="M327.165 195.946C327.165 195.946 330.917 204.505 325.878 204.183C325.878 204.183 334.562 205.719 327.165 195.946Z" fill="#E58353"/>
<path d="M299.18 196.495C301.572 194.305 301.073 189.866 298.065 186.579C295.057 183.292 290.679 182.402 288.287 184.592C285.895 186.781 286.394 191.221 289.401 194.508C292.409 197.795 296.787 198.684 299.18 196.495Z" fill="#F7B289"/>
<path d="M298.336 191.638C297.314 189.272 294.776 185.376 289.25 185.797C289.25 185.797 294.21 186.105 295.914 192.455C296.07 193.035 296.592 193.441 297.193 193.425C298.098 193.399 298.696 192.47 298.336 191.638Z" fill="#E58353"/>
<path d="M319.067 207.131C319.067 210.044 321.429 212.406 324.343 212.406C327.256 212.406 329.618 210.044 329.618 207.131H319.067Z" fill="#FBFFFF"/>
<path d="M349.731 240.081L345.874 322.637C345.874 322.637 311.629 327.445 284.725 322.637C284.725 322.637 280.551 304.546 276.5 285.49C273.755 272.58 271.062 259.225 269.763 250.759C269.763 250.755 269.763 250.755 269.763 250.755C269.023 245.913 268.736 242.665 269.154 242.018C270.334 240.178 282.644 236.533 293.914 233.522C297.128 232.664 300.253 231.86 303.015 231.163L303.036 231.159C308.804 229.699 312.974 228.715 312.974 228.715C312.974 228.715 317.562 229.64 323.563 231.1C323.597 231.108 323.626 231.117 323.66 231.121L323.707 231.133C326.583 231.831 329.78 232.652 332.947 233.548C335.023 234.136 337.087 234.757 339.045 235.4C343.612 236.897 347.587 238.508 349.731 240.081Z" fill="#D8563C"/>
<path d="M331.31 233.091L328.24 241.844L315.579 277.958L300.642 241.29V241.286L297.128 232.663C300.342 231.805 300.253 231.86 303.014 231.162L303.036 231.157C308.804 229.698 312.974 228.714 312.974 228.714C312.974 228.714 317.562 229.639 323.563 231.098C323.597 231.107 323.626 231.116 323.66 231.12L323.707 231.132C326.087 231.712 328.688 232.372 331.31 233.091Z" fill="#F7B289"/>
<path d="M328.241 241.844L315.58 277.958L300.644 241.29C300.644 241.29 314.146 247.215 328.241 241.844Z" fill="#FDFEFF"/>
<path d="M324.644 262.999L251.035 271.025L256.533 321.443L330.142 313.417L324.644 262.999Z" fill="#132E37"/>
<path d="M311.848 274.596L298.353 276.155L302.376 311.004L315.872 309.446L311.848 274.596Z" fill="#FDFEFF"/>
<g opacity="0.4">
<path d="M330.148 313.404L256.539 321.433C325.595 312.751 324.65 262.986 324.65 262.986L330.148 313.404Z" fill="#132E37"/>
</g>
<g opacity="0.4">
<path d="M287.215 259.625C287.215 259.625 285.101 284.293 286.244 285.615C287.388 286.937 305.107 283.293 305.107 283.293C305.107 283.293 287.736 298.944 283.702 300.088C279.669 301.232 270.806 301.803 270.806 301.803C270.806 301.803 267.406 284.497 268.963 280.714C270.52 276.931 283.702 259.625 283.702 259.625H287.215Z" fill="#132E37"/>
</g>
<path d="M314.82 298.389C314.82 298.389 329.016 300.296 330.288 289.49C331.559 278.683 323.084 271.691 312.913 280.379C312.913 280.379 312.49 272.751 308.824 272.713C305.942 272.682 305.073 286.312 305.073 286.312L301.896 294.045L314.82 298.389Z" fill="#F7B289"/>
<path d="M269.156 242.018C269.156 242.018 259.197 249.518 257.911 272.874C256.624 296.229 255.632 321.112 268.962 321.101C284.16 321.09 313.182 297.944 313.182 297.944L305.107 283.294L279.966 293.4L287.214 259.625C287.214 259.625 281.658 243.557 269.156 242.018Z" fill="#D8563C"/>
<path d="M402.031 182C401.964 182 401.919 181.967 401.897 181.9C401.852 181.833 401.83 181.766 401.83 181.699C401.83 181.409 401.953 181.075 402.198 180.696C402.443 180.295 402.744 179.961 403.1 179.693C403.479 179.404 403.836 179.259 404.17 179.259H404.939C405.251 178.858 405.507 178.401 405.708 177.888C405.931 177.353 406.12 176.596 406.276 175.615L408.315 163.714C408.449 162.8 408.728 161.942 409.151 161.14C409.574 160.338 410.21 159.524 411.056 158.7C412.55 157.207 414.199 156.46 416.004 156.46C416.45 156.46 416.895 156.505 417.341 156.594C417.809 156.661 418.188 156.772 418.478 156.928C418.745 157.084 418.879 157.218 418.879 157.329C418.879 157.53 418.623 157.753 418.11 157.998C417.597 158.243 417.185 158.365 416.873 158.365C416.784 158.365 416.539 158.31 416.138 158.198C415.737 158.087 415.324 158.031 414.901 158.031C414.121 158.031 413.385 158.299 412.695 158.833C412.249 159.19 411.881 159.714 411.591 160.405C411.324 161.095 411.09 161.976 410.889 163.046L408.416 177.019C408.326 177.487 408.182 177.944 407.981 178.39C407.78 178.813 407.546 179.147 407.279 179.393V179.426C407.702 179.515 408.471 179.604 409.586 179.693C410.7 179.76 411.569 179.794 412.193 179.794C414.132 179.794 415.893 179.326 417.475 178.39C417.675 178.256 417.82 178.189 417.91 178.189C418.066 178.189 418.144 178.312 418.144 178.557C418.144 178.98 417.831 179.471 417.207 180.028C416.606 180.563 415.781 181.031 414.734 181.432C413.709 181.811 412.617 182 411.458 182C410.9 182 409.864 181.911 408.349 181.733C408.126 181.71 407.624 181.655 406.844 181.565C406.064 181.476 405.362 181.432 404.738 181.432C404.092 181.432 403.602 181.476 403.267 181.565C402.955 181.632 402.699 181.721 402.499 181.833C402.276 181.944 402.12 182 402.031 182ZM423.404 182.334C422.401 182.334 421.598 181.955 420.997 181.198C420.417 180.418 420.128 179.348 420.128 177.988C420.128 176.339 420.518 174.579 421.298 172.707C422.1 170.812 423.125 169.241 424.373 167.993C425.621 166.723 426.88 166.088 428.151 166.088C429.31 166.088 429.889 166.79 429.889 168.194C429.889 169.33 429.555 170.445 428.886 171.537C428.218 172.629 427.315 173.598 426.178 174.445C425.064 175.27 423.838 175.905 422.501 176.35C422.501 177.554 422.691 178.423 423.069 178.958C423.471 179.493 424.05 179.76 424.808 179.76C425.61 179.76 426.345 179.504 427.014 178.991C427.683 178.479 428.251 177.777 428.719 176.885C428.786 176.752 428.853 176.64 428.92 176.551C428.986 176.462 429.076 176.417 429.187 176.417C429.365 176.417 429.454 176.551 429.454 176.818C429.454 177.42 429.154 178.167 428.552 179.058C427.95 179.95 427.181 180.719 426.245 181.365C425.309 182.011 424.362 182.334 423.404 182.334ZM423.571 174.579C424.15 174.579 424.763 174.378 425.409 173.977C426.078 173.554 426.635 172.985 427.081 172.272C427.527 171.559 427.749 170.757 427.749 169.865C427.749 168.818 427.382 168.294 426.646 168.294C426.045 168.294 425.465 168.617 424.908 169.263C424.373 169.91 423.916 170.712 423.537 171.67C423.181 172.629 422.936 173.554 422.802 174.445C422.936 174.534 423.192 174.579 423.571 174.579ZM433.757 182.334C433.066 182.334 432.475 182.145 431.985 181.766C431.495 181.387 431.172 180.886 431.016 180.262C430.971 180.083 431.038 179.805 431.216 179.426C431.417 179.025 431.673 178.635 431.985 178.256C432.163 178.055 432.308 177.955 432.42 177.955C432.531 177.955 432.62 178.044 432.687 178.222C433.356 179.783 434.281 180.563 435.462 180.563C436.063 180.563 436.531 180.384 436.866 180.028C437.222 179.649 437.401 179.147 437.401 178.523C437.401 177.676 436.922 176.584 435.963 175.247L435.261 174.244C434.726 173.487 434.347 172.863 434.125 172.372C433.924 171.882 433.824 171.358 433.824 170.801C433.824 169.91 434.058 169.107 434.526 168.394C435.016 167.681 435.651 167.124 436.431 166.723C437.211 166.299 438.025 166.088 438.872 166.088C440.476 166.088 441.278 166.634 441.278 167.726C441.278 168.127 441.134 168.528 440.844 168.929C440.688 169.197 440.554 169.33 440.443 169.33C440.309 169.33 440.186 169.197 440.075 168.929C439.83 168.506 439.529 168.205 439.172 168.027C438.838 167.826 438.404 167.726 437.869 167.726C437.245 167.726 436.743 167.893 436.364 168.227C435.985 168.561 435.796 168.985 435.796 169.497C435.796 169.787 435.885 170.121 436.063 170.5C436.264 170.857 436.632 171.414 437.167 172.172L437.869 173.141C438.493 173.966 438.927 174.679 439.172 175.281C439.418 175.86 439.54 176.473 439.54 177.119C439.54 177.944 439.273 178.768 438.738 179.593C438.203 180.395 437.49 181.053 436.598 181.565C435.707 182.078 434.76 182.334 433.757 182.334ZM444.399 182.334C443.709 182.334 443.118 182.145 442.628 181.766C442.137 181.387 441.814 180.886 441.658 180.262C441.614 180.083 441.68 179.805 441.859 179.426C442.059 179.025 442.316 178.635 442.628 178.256C442.806 178.055 442.951 177.955 443.062 177.955C443.174 177.955 443.263 178.044 443.33 178.222C443.998 179.783 444.923 180.563 446.104 180.563C446.706 180.563 447.174 180.384 447.508 180.028C447.865 179.649 448.043 179.147 448.043 178.523C448.043 177.676 447.564 176.584 446.606 175.247L445.904 174.244C445.369 173.487 444.99 172.863 444.767 172.372C444.567 171.882 444.466 171.358 444.466 170.801C444.466 169.91 444.7 169.107 445.168 168.394C445.659 167.681 446.294 167.124 447.074 166.723C447.854 166.299 448.667 166.088 449.514 166.088C451.119 166.088 451.921 166.634 451.921 167.726C451.921 168.127 451.776 168.528 451.486 168.929C451.33 169.197 451.197 169.33 451.085 169.33C450.952 169.33 450.829 169.197 450.718 168.929C450.472 168.506 450.172 168.205 449.815 168.027C449.481 167.826 449.046 167.726 448.511 167.726C447.887 167.726 447.386 167.893 447.007 168.227C446.628 168.561 446.439 168.985 446.439 169.497C446.439 169.787 446.528 170.121 446.706 170.5C446.907 170.857 447.274 171.414 447.809 172.172L448.511 173.141C449.135 173.966 449.57 174.679 449.815 175.281C450.06 175.86 450.183 176.473 450.183 177.119C450.183 177.944 449.915 178.768 449.38 179.593C448.846 180.395 448.132 181.053 447.241 181.565C446.349 182.078 445.402 182.334 444.399 182.334ZM456.007 182.334C455.071 182.334 454.358 181.978 453.867 181.265C453.399 180.529 453.165 179.515 453.165 178.222C453.165 176.417 453.6 174.568 454.469 172.673C455.338 170.779 456.408 169.208 457.678 167.96C458.971 166.712 460.197 166.088 461.355 166.088C462.225 166.088 462.893 166.478 463.361 167.258C463.829 168.015 464.063 169.018 464.063 170.266C464.063 171.938 463.651 173.721 462.826 175.615C462.024 177.509 460.999 179.103 459.751 180.395C458.503 181.688 457.255 182.334 456.007 182.334ZM457.645 180.128C458.38 180.128 459.049 179.76 459.651 179.025C460.252 178.267 460.731 177.275 461.088 176.05C461.445 174.802 461.623 173.487 461.623 172.105C461.623 169.564 460.965 168.294 459.651 168.294C458.826 168.294 458.102 168.74 457.478 169.631C456.876 170.523 456.408 171.615 456.074 172.907C455.762 174.178 455.606 175.37 455.606 176.484C455.606 177.554 455.762 178.434 456.074 179.125C456.408 179.794 456.932 180.128 457.645 180.128ZM467.201 182.334C467 182.334 466.9 182.267 466.9 182.134C466.9 182.045 466.945 181.855 467.034 181.565C467.145 181.253 467.29 180.73 467.468 179.994C467.914 178.144 468.449 175.058 469.073 170.734C469.207 169.887 469.273 169.297 469.273 168.963C469.273 168.673 469.207 168.528 469.073 168.528C468.694 168.528 468.126 169.197 467.368 170.534C467.257 170.734 467.156 170.913 467.067 171.069C466.978 171.202 466.9 171.303 466.833 171.369C466.789 171.436 466.733 171.47 466.666 171.47C466.488 171.47 466.399 171.358 466.399 171.135C466.399 170.69 466.644 170.055 467.134 169.23C467.624 168.405 468.204 167.681 468.872 167.057C469.541 166.411 470.143 166.088 470.678 166.088C471.034 166.088 471.29 166.244 471.446 166.556C471.602 166.868 471.68 167.258 471.68 167.726C471.68 168.461 471.502 169.899 471.146 172.038H471.179C472.204 170.233 473.33 168.795 474.555 167.726C475.781 166.634 476.84 166.088 477.731 166.088C478.667 166.088 479.135 166.745 479.135 168.06C479.135 168.55 479.035 169.375 478.834 170.534L478.065 174.545C477.508 177.376 477.23 178.98 477.23 179.359C477.23 179.515 477.263 179.66 477.33 179.794C477.419 179.905 477.553 179.961 477.731 179.961C478.333 179.961 479.024 179.047 479.804 177.22C479.871 176.974 479.982 176.852 480.138 176.852C480.272 176.852 480.339 176.986 480.339 177.253C480.339 177.454 480.327 177.632 480.305 177.788C480.149 178.59 479.826 179.348 479.336 180.061C478.845 180.752 478.299 181.309 477.698 181.733C477.096 182.134 476.55 182.334 476.06 182.334C475.592 182.334 475.268 182.145 475.09 181.766C474.934 181.365 474.856 180.93 474.856 180.462C474.856 179.459 475.135 177.654 475.692 175.047C476.227 172.506 476.517 170.745 476.561 169.765C476.583 169.364 476.55 169.085 476.461 168.929C476.394 168.751 476.216 168.662 475.926 168.662C475.235 168.662 474.488 169.119 473.686 170.032C472.906 170.946 472.204 172.071 471.58 173.409C470.956 174.724 470.544 175.927 470.343 177.019L469.808 179.927C469.675 180.507 469.318 181.053 468.739 181.565C468.159 182.078 467.647 182.334 467.201 182.334Z" fill="white"/>
<path d="M455.462 232.247C454.689 232.247 454.212 231.687 454.031 230.569C453.883 229.664 453.809 228.044 453.809 225.708L453.192 226.177H450.182C449.803 227.147 449.359 228.019 448.849 228.792C448.356 229.565 447.829 230.141 447.27 230.52V230.569C447.484 230.668 447.689 230.717 447.887 230.717C448.134 230.717 448.364 230.676 448.578 230.594C448.808 230.511 448.948 230.47 448.997 230.47C449.112 230.47 449.17 230.511 449.17 230.594C449.17 230.709 449.055 230.906 448.824 231.186C448.561 231.449 448.282 231.655 447.986 231.803C447.689 231.934 447.41 232 447.147 232C446.933 232 446.628 231.934 446.234 231.803C445.839 231.671 445.543 231.605 445.345 231.605C445.099 231.605 444.852 231.671 444.605 231.803C444.342 231.934 444.169 232 444.087 232C444.005 232 443.964 231.959 443.964 231.877C443.964 231.712 444.029 231.523 444.161 231.309C444.293 231.079 444.449 230.923 444.63 230.84C444.729 230.791 444.827 230.758 444.926 230.742C445.008 230.725 445.115 230.692 445.247 230.643C445.888 230.396 446.448 229.952 446.925 229.311C447.418 228.653 447.838 227.921 448.183 227.115C448.528 226.292 448.923 225.248 449.367 223.981C449.877 222.55 450.313 221.39 450.675 220.502C451.053 219.597 451.498 218.766 452.007 218.01C452.517 217.237 453.101 216.636 453.759 216.209V216.184C453.529 216.151 453.356 216.118 453.241 216.085C453.175 216.069 452.97 216.036 452.624 215.987C452.295 215.937 451.868 215.913 451.341 215.913C450.453 215.913 449.705 216.077 449.096 216.406C448.504 216.735 447.944 217.27 447.418 218.01C447.254 218.273 447.122 218.405 447.023 218.405C446.925 218.405 446.875 218.339 446.875 218.207L446.9 217.96C447.147 216.957 447.706 216.151 448.578 215.542C449.466 214.934 450.494 214.629 451.662 214.629C452.139 214.629 452.855 214.712 453.809 214.876C454.697 215.041 455.33 215.123 455.709 215.123C456.136 215.123 456.589 215.041 457.066 214.876V214.901C456.621 215.641 456.276 216.801 456.029 218.38C455.783 219.943 455.659 221.884 455.659 224.203C455.659 226.588 455.709 228.2 455.807 229.039C455.84 229.516 455.906 229.878 456.005 230.125C456.12 230.355 456.309 230.47 456.572 230.47C456.737 230.47 456.893 230.429 457.041 230.347C457.205 230.265 457.419 230.141 457.682 229.977C457.995 229.763 458.192 229.656 458.275 229.656C458.373 229.656 458.423 229.689 458.423 229.755C458.423 229.886 458.373 230.043 458.275 230.223C457.962 230.783 457.534 231.26 456.992 231.655C456.465 232.049 455.955 232.247 455.462 232.247ZM453.833 224.696C453.866 223.183 453.973 221.686 454.154 220.206C454.335 218.709 454.565 217.492 454.845 216.554H454.82C454.179 216.85 453.554 217.566 452.945 218.701C452.353 219.836 451.67 221.555 450.897 223.858L450.626 224.696H453.833ZM455.55 241.845C454.662 241.845 453.864 241.606 453.157 241.129C452.45 240.669 451.956 240.019 451.677 239.18C451.644 239.049 451.627 238.942 451.627 238.859C451.627 238.547 451.742 238.243 451.973 237.946C452.187 237.667 452.433 237.469 452.713 237.354L452.91 237.305C452.976 237.305 453.017 237.346 453.034 237.428C453.05 237.511 453.058 237.56 453.058 237.576C453.19 238.613 453.527 239.402 454.07 239.945C454.596 240.488 455.304 240.759 456.192 240.759C457.212 240.759 458.034 240.274 458.659 239.304C459.284 238.349 459.753 236.844 460.066 234.788L461.793 223.685C461.892 223.093 461.941 222.673 461.941 222.426C461.941 222.18 461.875 222.056 461.744 222.056C461.596 222.056 461.406 222.18 461.176 222.426C460.946 222.673 460.732 222.961 460.535 223.29C460.469 223.389 460.395 223.512 460.313 223.66C460.23 223.792 460.165 223.882 460.115 223.932C460.066 223.964 460.016 223.981 459.967 223.981C459.868 223.981 459.819 223.89 459.819 223.71C459.819 223.413 460 222.986 460.362 222.426C460.724 221.851 461.143 221.349 461.62 220.921C462.114 220.477 462.541 220.255 462.903 220.255C463.199 220.255 463.413 220.37 463.545 220.601C463.693 220.814 463.75 221.102 463.718 221.464C463.668 221.958 463.561 222.698 463.397 223.685C463.298 224.244 463.232 224.631 463.199 224.845H463.224C463.866 223.677 464.631 222.624 465.519 221.686C466.424 220.732 467.205 220.255 467.863 220.255C468.34 220.255 468.669 220.494 468.85 220.971C469.031 221.448 469.121 222.204 469.121 223.241C469.121 224.655 468.8 226.07 468.159 227.485C467.517 228.883 466.687 230.026 465.667 230.914C464.663 231.803 463.627 232.247 462.558 232.247C462.41 232.247 462.27 232.222 462.138 232.173L461.719 234.64C461.472 236.055 461.053 237.305 460.461 238.391C459.885 239.493 459.178 240.34 458.339 240.932C457.483 241.541 456.554 241.845 455.55 241.845ZM463.989 230.766C464.614 230.766 465.182 230.396 465.692 229.656C466.201 228.899 466.596 227.978 466.876 226.892C467.172 225.79 467.32 224.762 467.32 223.808C467.32 223.265 467.279 222.879 467.197 222.649C467.114 222.402 466.983 222.278 466.802 222.278C466.358 222.278 465.831 222.624 465.223 223.315C464.614 224.006 464.063 224.861 463.57 225.881C463.076 226.901 462.764 227.871 462.632 228.792L462.385 230.322C462.648 230.487 462.903 230.602 463.15 230.668C463.397 230.733 463.676 230.766 463.989 230.766ZM466.683 241.845C465.794 241.845 464.997 241.606 464.289 241.129C463.582 240.669 463.089 240.019 462.809 239.18C462.776 239.049 462.76 238.942 462.76 238.859C462.76 238.547 462.875 238.243 463.105 237.946C463.319 237.667 463.566 237.469 463.845 237.354L464.043 237.305C464.108 237.305 464.15 237.346 464.166 237.428C464.182 237.511 464.191 237.56 464.191 237.576C464.322 238.613 464.659 239.402 465.202 239.945C465.729 240.488 466.436 240.759 467.324 240.759C468.344 240.759 469.167 240.274 469.792 239.304C470.417 238.349 470.886 236.844 471.198 234.788L472.925 223.685C473.024 223.093 473.073 222.673 473.073 222.426C473.073 222.18 473.008 222.056 472.876 222.056C472.728 222.056 472.539 222.18 472.308 222.426C472.078 222.673 471.864 222.961 471.667 223.29C471.601 223.389 471.527 223.512 471.445 223.66C471.363 223.792 471.297 223.882 471.247 223.932C471.198 223.964 471.149 223.981 471.099 223.981C471.001 223.981 470.951 223.89 470.951 223.71C470.951 223.413 471.132 222.986 471.494 222.426C471.856 221.851 472.276 221.349 472.753 220.921C473.246 220.477 473.674 220.255 474.036 220.255C474.332 220.255 474.546 220.37 474.677 220.601C474.825 220.814 474.883 221.102 474.85 221.464C474.8 221.958 474.694 222.698 474.529 223.685C474.43 224.244 474.365 224.631 474.332 224.845H474.356C474.998 223.677 475.763 222.624 476.651 221.686C477.556 220.732 478.337 220.255 478.995 220.255C479.472 220.255 479.801 220.494 479.982 220.971C480.163 221.448 480.253 222.204 480.253 223.241C480.253 224.655 479.933 226.07 479.291 227.485C478.65 228.883 477.819 230.026 476.799 230.914C475.796 231.803 474.759 232.247 473.69 232.247C473.542 232.247 473.402 232.222 473.271 232.173L472.851 234.64C472.604 236.055 472.185 237.305 471.593 238.391C471.017 239.493 470.31 240.34 469.471 240.932C468.616 241.541 467.686 241.845 466.683 241.845ZM475.121 230.766C475.746 230.766 476.314 230.396 476.824 229.656C477.334 228.899 477.728 227.978 478.008 226.892C478.304 225.79 478.452 224.762 478.452 223.808C478.452 223.265 478.411 222.879 478.329 222.649C478.247 222.402 478.115 222.278 477.934 222.278C477.49 222.278 476.964 222.624 476.355 223.315C475.746 224.006 475.195 224.861 474.702 225.881C474.208 226.901 473.896 227.871 473.764 228.792L473.517 230.322C473.781 230.487 474.036 230.602 474.282 230.668C474.529 230.733 474.809 230.766 475.121 230.766ZM482.583 232.247C482.271 232.247 482.041 232.099 481.893 231.803C481.761 231.49 481.695 231.104 481.695 230.643C481.695 230.33 481.728 229.96 481.794 229.533L483.25 219.811C483.595 217.574 484.015 215.847 484.508 214.629C485.001 213.412 485.594 212.532 486.285 211.989C486.679 211.677 487.091 211.447 487.518 211.298C487.946 211.15 488.604 210.969 489.492 210.756C489.903 210.673 490.167 210.608 490.282 210.558C490.397 210.509 490.471 210.484 490.504 210.484C490.619 210.484 490.677 210.55 490.677 210.682C490.677 210.747 490.635 210.846 490.553 210.978C490.487 211.109 490.372 211.249 490.208 211.397C490.027 211.562 489.854 211.677 489.69 211.743C489.525 211.792 489.328 211.825 489.097 211.841C488.143 211.94 487.452 212.236 487.025 212.73C486.219 213.651 485.627 215.353 485.248 217.837L483.447 229.459C483.431 229.574 483.422 229.714 483.422 229.878C483.422 230.24 483.529 230.421 483.743 230.421C484.237 230.421 484.812 229.689 485.47 228.225C485.536 228.044 485.627 227.953 485.742 227.953C485.857 227.953 485.914 228.069 485.914 228.299C485.914 228.842 485.717 229.426 485.322 230.051C484.944 230.676 484.492 231.202 483.965 231.63C483.439 232.041 482.978 232.247 482.583 232.247ZM490.011 232.247C489.271 232.247 488.678 231.967 488.234 231.408C487.807 230.832 487.593 230.043 487.593 229.039C487.593 227.822 487.881 226.522 488.456 225.141C489.049 223.742 489.805 222.583 490.726 221.662C491.648 220.724 492.577 220.255 493.515 220.255C494.37 220.255 494.798 220.773 494.798 221.81C494.798 222.649 494.551 223.471 494.057 224.277C493.564 225.083 492.898 225.799 492.059 226.424C491.236 227.032 490.332 227.501 489.345 227.83C489.345 228.718 489.485 229.36 489.764 229.755C490.06 230.149 490.488 230.347 491.047 230.347C491.639 230.347 492.182 230.158 492.676 229.779C493.169 229.401 493.589 228.883 493.934 228.225C493.983 228.126 494.033 228.044 494.082 227.978C494.131 227.912 494.197 227.879 494.279 227.879C494.411 227.879 494.477 227.978 494.477 228.176C494.477 228.62 494.255 229.171 493.811 229.829C493.367 230.487 492.799 231.054 492.108 231.531C491.417 232.008 490.718 232.247 490.011 232.247ZM490.134 226.522C490.562 226.522 491.014 226.374 491.491 226.078C491.985 225.766 492.396 225.346 492.725 224.82C493.054 224.293 493.219 223.701 493.219 223.043C493.219 222.27 492.947 221.884 492.404 221.884C491.96 221.884 491.532 222.122 491.121 222.599C490.726 223.076 490.389 223.668 490.11 224.376C489.846 225.083 489.665 225.766 489.567 226.424C489.665 226.489 489.855 226.522 490.134 226.522Z" fill="white"/>
<path d="M399.48 305C399.398 305 399.357 304.918 399.357 304.753C399.357 304.572 399.398 304.408 399.48 304.26C399.563 304.112 399.703 303.939 399.9 303.742C400.278 303.396 400.525 303.149 400.64 303.001C400.755 302.837 400.838 302.631 400.887 302.385C400.953 302.121 401.06 301.579 401.208 300.756L402.713 291.972C402.779 291.561 403.058 291.15 403.552 290.738C404.062 290.327 404.514 290.122 404.909 290.122C405.09 290.122 405.18 290.163 405.18 290.245C405.18 290.294 405.098 290.434 404.933 290.664C404.785 290.895 404.67 291.281 404.588 291.824L403.848 296.537C404.078 296.586 404.44 296.611 404.933 296.611C405.723 296.611 406.422 296.43 407.031 296.068C407.656 295.69 408.141 295.18 408.486 294.538C408.832 293.897 409.005 293.181 409.005 292.392C409.005 291.273 408.659 290.426 407.968 289.85C407.277 289.258 406.29 288.962 405.007 288.962C404.02 288.962 403.108 289.143 402.269 289.505C401.43 289.867 400.689 290.409 400.048 291.133C399.9 291.331 399.785 291.47 399.703 291.553C399.62 291.618 399.53 291.651 399.431 291.651C399.332 291.651 399.283 291.594 399.283 291.479L399.308 291.207C399.456 290.599 399.826 290.023 400.418 289.48C401.01 288.921 401.775 288.477 402.713 288.148C403.65 287.802 404.678 287.629 405.797 287.629C407.36 287.629 408.61 287.983 409.547 288.69C410.485 289.381 410.954 290.344 410.954 291.577C410.954 292.663 410.592 293.683 409.868 294.637C409.144 295.575 408.207 296.348 407.055 296.956C405.92 297.548 404.744 297.894 403.527 297.993L402.811 302.286C402.729 302.714 402.573 303.059 402.343 303.322V303.347C402.425 303.38 402.548 303.429 402.713 303.495C402.877 303.544 403.042 303.569 403.206 303.569C403.404 303.569 403.601 303.528 403.798 303.446C404.012 303.347 404.152 303.297 404.218 303.297C404.317 303.297 404.366 303.355 404.366 303.47C404.366 303.618 404.267 303.791 404.07 303.988C403.445 304.663 402.943 305 402.565 305C402.417 305 402.145 304.934 401.75 304.803C401.224 304.655 400.879 304.581 400.714 304.581C400.467 304.581 400.212 304.655 399.949 304.803C399.686 304.934 399.53 305 399.48 305ZM412.795 305.247C412.055 305.247 411.462 304.967 411.018 304.408C410.591 303.832 410.377 303.043 410.377 302.039C410.377 300.822 410.665 299.522 411.24 298.141C411.833 296.742 412.589 295.583 413.51 294.662C414.432 293.724 415.361 293.255 416.299 293.255C417.154 293.255 417.582 293.773 417.582 294.81C417.582 295.649 417.335 296.471 416.841 297.277C416.348 298.083 415.682 298.799 414.843 299.424C414.02 300.032 413.116 300.501 412.129 300.83C412.129 301.718 412.268 302.36 412.548 302.755C412.844 303.149 413.272 303.347 413.831 303.347C414.423 303.347 414.966 303.158 415.46 302.779C415.953 302.401 416.373 301.883 416.718 301.225C416.767 301.126 416.817 301.044 416.866 300.978C416.915 300.912 416.981 300.879 417.063 300.879C417.195 300.879 417.261 300.978 417.261 301.176C417.261 301.62 417.039 302.171 416.595 302.829C416.15 303.487 415.583 304.054 414.892 304.531C414.201 305.008 413.502 305.247 412.795 305.247ZM412.918 299.522C413.346 299.522 413.798 299.374 414.275 299.078C414.769 298.766 415.18 298.346 415.509 297.82C415.838 297.293 416.002 296.701 416.002 296.043C416.002 295.27 415.731 294.884 415.188 294.884C414.744 294.884 414.316 295.122 413.905 295.599C413.51 296.076 413.173 296.668 412.893 297.376C412.63 298.083 412.449 298.766 412.351 299.424C412.449 299.489 412.639 299.522 412.918 299.522ZM420.165 305.247C419.326 305.247 418.907 304.449 418.907 302.853C418.907 301.324 419.236 299.818 419.894 298.338C420.568 296.841 421.473 295.624 422.608 294.686C423.743 293.732 424.968 293.255 426.284 293.255C426.959 293.255 427.543 293.362 428.036 293.576C427.822 294.415 427.674 295.032 427.592 295.426L427.074 298.091C426.613 300.197 426.334 301.653 426.235 302.459C426.218 302.574 426.21 302.714 426.21 302.878C426.21 303.24 426.317 303.421 426.531 303.421C426.794 303.421 427.041 303.256 427.271 302.927C427.501 302.582 427.765 302.097 428.061 301.472C428.077 301.455 428.102 301.406 428.135 301.324C428.184 301.241 428.242 301.2 428.307 301.2C428.406 301.2 428.456 301.299 428.456 301.496L428.406 301.891C428.291 302.434 428.052 302.969 427.691 303.495C427.345 304.021 426.95 304.449 426.506 304.778C426.079 305.09 425.692 305.247 425.347 305.247C424.771 305.247 424.483 304.778 424.483 303.84C424.483 303.478 424.524 303.108 424.606 302.73L425.026 300.583H425.001C424.212 301.965 423.364 303.092 422.46 303.964C421.571 304.819 420.807 305.247 420.165 305.247ZM421.325 303.223C421.785 303.223 422.312 302.87 422.904 302.162C423.512 301.439 424.072 300.559 424.582 299.522C425.108 298.486 425.47 297.557 425.667 296.734L426.062 295.155C425.569 294.826 425.05 294.662 424.508 294.662C423.8 294.662 423.151 295.073 422.558 295.895C421.983 296.701 421.53 297.688 421.201 298.856C420.872 300.008 420.708 301.052 420.708 301.99C420.708 302.401 420.749 302.714 420.831 302.927C420.93 303.125 421.094 303.223 421.325 303.223ZM430.859 305.247C430.794 305.247 430.736 305.23 430.687 305.197C430.654 305.181 430.637 305.156 430.637 305.123C430.637 305.074 430.687 304.967 430.785 304.803C430.884 304.638 430.958 304.408 431.008 304.112C431.073 303.766 431.131 303.454 431.18 303.174C431.23 302.878 431.279 302.607 431.328 302.36C431.74 300.106 432.011 298.535 432.143 297.647C432.291 296.742 432.356 296.084 432.34 295.673C432.34 295.459 432.323 295.303 432.291 295.204C432.258 295.106 432.184 295.056 432.069 295.056C431.92 295.056 431.731 295.18 431.501 295.426C431.271 295.673 431.057 295.961 430.859 296.29C430.777 296.438 430.703 296.57 430.637 296.685C430.572 296.784 430.514 296.858 430.465 296.907C430.432 296.956 430.391 296.981 430.341 296.981C430.276 296.981 430.226 296.956 430.193 296.907C430.16 296.858 430.144 296.792 430.144 296.71C430.144 296.397 430.317 295.961 430.662 295.402C431.024 294.843 431.443 294.349 431.92 293.921C432.414 293.477 432.85 293.255 433.228 293.255C433.541 293.255 433.755 293.379 433.87 293.625C434.001 293.872 434.067 294.259 434.067 294.785C434.067 295.509 433.911 296.487 433.598 297.721H433.648C435.21 294.744 436.658 293.255 437.99 293.255C438.336 293.255 438.599 293.354 438.78 293.551C438.977 293.732 439.076 293.995 439.076 294.341C439.076 294.703 438.994 295.073 438.829 295.451C438.681 295.829 438.492 296.142 438.262 296.389C438.048 296.635 437.85 296.759 437.67 296.759C437.554 296.759 437.513 296.685 437.546 296.537C437.596 296.307 437.62 296.126 437.62 295.994C437.62 295.599 437.406 295.402 436.979 295.402C436.469 295.402 435.959 295.698 435.449 296.29C434.939 296.882 434.487 297.606 434.092 298.461C433.713 299.317 433.45 300.098 433.302 300.805C433.105 301.562 432.981 302.352 432.932 303.174C432.899 303.487 432.751 303.807 432.488 304.136C432.241 304.449 431.953 304.712 431.624 304.926C431.295 305.14 431.04 305.247 430.859 305.247Z" fill="white"/>
<path d="M449.284 360C449.235 360 449.202 359.975 449.186 359.926C449.153 359.877 449.136 359.827 449.136 359.778C449.136 359.564 449.227 359.317 449.408 359.038C449.589 358.742 449.811 358.495 450.074 358.297C450.354 358.084 450.617 357.977 450.864 357.977H451.431C451.661 357.681 451.851 357.343 451.999 356.965C452.163 356.57 452.303 356.011 452.418 355.287L453.923 346.503C454.022 345.829 454.227 345.196 454.54 344.603C454.853 344.011 455.321 343.411 455.946 342.802C457.049 341.7 458.266 341.149 459.598 341.149C459.927 341.149 460.256 341.182 460.585 341.248C460.931 341.297 461.21 341.379 461.424 341.494C461.621 341.61 461.72 341.708 461.72 341.791C461.72 341.939 461.531 342.103 461.153 342.284C460.774 342.465 460.47 342.555 460.24 342.555C460.174 342.555 459.993 342.514 459.697 342.432C459.401 342.35 459.097 342.309 458.784 342.309C458.208 342.309 457.665 342.506 457.155 342.901C456.826 343.164 456.555 343.551 456.341 344.061C456.144 344.57 455.971 345.22 455.823 346.01L453.997 356.324C453.931 356.669 453.824 357.006 453.676 357.335C453.528 357.648 453.356 357.894 453.158 358.075V358.1C453.471 358.166 454.038 358.232 454.861 358.297C455.683 358.347 456.325 358.372 456.785 358.372C458.216 358.372 459.516 358.026 460.684 357.335C460.832 357.237 460.939 357.187 461.005 357.187C461.12 357.187 461.177 357.278 461.177 357.459C461.177 357.771 460.947 358.133 460.486 358.544C460.042 358.939 459.434 359.284 458.661 359.581C457.904 359.86 457.098 360 456.243 360C455.831 360 455.066 359.934 453.948 359.803C453.783 359.786 453.413 359.745 452.838 359.679C452.262 359.613 451.744 359.581 451.283 359.581C450.806 359.581 450.444 359.613 450.197 359.679C449.967 359.729 449.778 359.794 449.63 359.877C449.465 359.959 449.35 360 449.284 360ZM465.06 360.247C464.32 360.247 463.727 359.967 463.283 359.408C462.856 358.832 462.642 358.043 462.642 357.039C462.642 355.822 462.93 354.522 463.505 353.141C464.098 351.742 464.854 350.583 465.775 349.662C466.697 348.724 467.626 348.255 468.564 348.255C469.419 348.255 469.847 348.773 469.847 349.81C469.847 350.649 469.6 351.471 469.106 352.277C468.613 353.083 467.947 353.799 467.108 354.424C466.285 355.032 465.381 355.501 464.394 355.83C464.394 356.718 464.533 357.36 464.813 357.755C465.109 358.149 465.537 358.347 466.096 358.347C466.688 358.347 467.231 358.158 467.725 357.779C468.218 357.401 468.638 356.883 468.983 356.225C469.032 356.126 469.082 356.044 469.131 355.978C469.18 355.912 469.246 355.879 469.328 355.879C469.46 355.879 469.526 355.978 469.526 356.176C469.526 356.62 469.304 357.171 468.86 357.829C468.416 358.487 467.848 359.054 467.157 359.531C466.466 360.008 465.767 360.247 465.06 360.247ZM465.183 354.522C465.611 354.522 466.063 354.374 466.54 354.078C467.034 353.766 467.445 353.346 467.774 352.82C468.103 352.293 468.267 351.701 468.267 351.043C468.267 350.27 467.996 349.884 467.453 349.884C467.009 349.884 466.581 350.122 466.17 350.599C465.775 351.076 465.438 351.668 465.159 352.376C464.895 353.083 464.714 353.766 464.616 354.424C464.714 354.489 464.904 354.522 465.183 354.522ZM472.134 360.247C471.986 360.247 471.912 360.197 471.912 360.099C471.912 360.049 471.945 359.934 472.011 359.753C472.093 359.556 472.2 359.145 472.331 358.52C472.512 357.746 472.677 356.916 472.825 356.027C472.989 355.139 473.22 353.692 473.516 351.685C473.614 351.06 473.664 350.624 473.664 350.377C473.664 350.163 473.614 350.056 473.516 350.056C473.351 350.056 473.17 350.188 472.973 350.451C472.776 350.714 472.537 351.076 472.257 351.537C472.175 351.685 472.101 351.816 472.035 351.932C471.969 352.03 471.912 352.104 471.863 352.154C471.83 352.203 471.789 352.228 471.739 352.228C471.608 352.228 471.542 352.137 471.542 351.956C471.542 351.627 471.723 351.167 472.085 350.575C472.447 349.966 472.874 349.431 473.368 348.971C473.861 348.494 474.305 348.255 474.7 348.255C474.963 348.255 475.152 348.379 475.268 348.625C475.383 348.856 475.44 349.152 475.44 349.514C475.44 349.859 475.358 350.591 475.194 351.71L475.07 352.573H475.095C475.901 351.142 476.682 350.065 477.439 349.341C478.212 348.617 478.944 348.255 479.635 348.255C479.964 348.255 480.202 348.362 480.35 348.576C480.498 348.773 480.573 349.111 480.573 349.588C480.573 350.048 480.498 350.698 480.35 351.537L480.227 352.228H480.276C481.017 350.928 481.757 349.941 482.497 349.267C483.254 348.592 483.928 348.255 484.52 348.255C485.211 348.255 485.557 348.749 485.557 349.736C485.557 350.081 485.483 350.681 485.335 351.537L484.767 354.498C484.356 356.587 484.15 357.771 484.15 358.051C484.15 358.347 484.274 358.495 484.52 358.495C484.8 358.495 485.055 358.314 485.285 357.952C485.516 357.574 485.762 357.08 486.025 356.472C486.091 356.291 486.174 356.2 486.272 356.2C486.371 356.2 486.42 356.299 486.42 356.496C486.42 356.644 486.412 356.776 486.396 356.891C486.28 357.483 486.042 358.043 485.68 358.569C485.335 359.079 484.94 359.49 484.496 359.803C484.052 360.099 483.649 360.247 483.287 360.247C482.694 360.247 482.398 359.803 482.398 358.914C482.398 358.24 482.604 356.924 483.015 354.966C483.065 354.72 483.172 354.144 483.336 353.239C483.517 352.335 483.624 351.578 483.657 350.969C483.657 350.69 483.632 350.484 483.583 350.352C483.533 350.221 483.41 350.155 483.213 350.155C482.834 350.155 482.407 350.426 481.93 350.969C481.469 351.512 481.033 352.195 480.622 353.017C480.211 353.84 479.898 354.646 479.684 355.435L478.919 359.358C478.903 359.556 478.714 359.753 478.352 359.951C478.006 360.148 477.727 360.247 477.513 360.247C477.283 360.247 477.167 360.148 477.167 359.951C477.316 359.309 477.587 357.911 477.982 355.756C478.377 353.585 478.607 351.989 478.673 350.969V350.723C478.673 350.542 478.648 350.402 478.599 350.303C478.549 350.204 478.442 350.155 478.278 350.155C477.834 350.155 477.332 350.5 476.773 351.191C476.23 351.866 475.736 352.696 475.292 353.683C474.865 354.654 474.585 355.534 474.453 356.324L474.059 358.47C473.96 358.898 473.697 359.301 473.269 359.679C472.841 360.058 472.463 360.247 472.134 360.247ZM490.208 360.247C489.517 360.247 488.991 359.984 488.629 359.457C488.284 358.914 488.111 358.166 488.111 357.212C488.111 355.879 488.432 354.514 489.073 353.116C489.715 351.718 490.504 350.558 491.442 349.637C492.396 348.716 493.301 348.255 494.156 348.255C494.798 348.255 495.291 348.543 495.637 349.119C495.982 349.678 496.155 350.418 496.155 351.339C496.155 352.573 495.85 353.889 495.242 355.287C494.65 356.685 493.893 357.862 492.972 358.816C492.051 359.77 491.129 360.247 490.208 360.247ZM491.417 358.618C491.96 358.618 492.454 358.347 492.898 357.804C493.342 357.245 493.696 356.513 493.959 355.608C494.222 354.687 494.354 353.716 494.354 352.696C494.354 350.821 493.868 349.884 492.898 349.884C492.289 349.884 491.755 350.213 491.294 350.871C490.85 351.529 490.504 352.335 490.258 353.289C490.027 354.226 489.912 355.106 489.912 355.929C489.912 356.718 490.027 357.368 490.258 357.878C490.504 358.372 490.891 358.618 491.417 358.618ZM498.471 360.247C498.323 360.247 498.249 360.197 498.249 360.099C498.249 360.033 498.281 359.893 498.347 359.679C498.43 359.449 498.536 359.062 498.668 358.52C498.997 357.154 499.392 354.876 499.852 351.685C499.951 351.06 500 350.624 500 350.377C500 350.163 499.951 350.056 499.852 350.056C499.573 350.056 499.153 350.55 498.594 351.537C498.512 351.685 498.438 351.816 498.372 351.932C498.306 352.03 498.249 352.104 498.199 352.154C498.166 352.203 498.125 352.228 498.076 352.228C497.944 352.228 497.878 352.145 497.878 351.981C497.878 351.652 498.059 351.183 498.421 350.575C498.783 349.966 499.211 349.431 499.704 348.971C500.198 348.494 500.642 348.255 501.037 348.255C501.3 348.255 501.489 348.37 501.604 348.601C501.719 348.831 501.777 349.119 501.777 349.464C501.777 350.007 501.645 351.068 501.382 352.647H501.407C502.164 351.315 502.994 350.254 503.899 349.464C504.804 348.658 505.585 348.255 506.243 348.255C506.934 348.255 507.279 348.74 507.279 349.711C507.279 350.073 507.205 350.681 507.057 351.537L506.49 354.498C506.078 356.587 505.873 357.771 505.873 358.051C505.873 358.166 505.898 358.273 505.947 358.372C506.013 358.454 506.111 358.495 506.243 358.495C506.687 358.495 507.197 357.82 507.773 356.472C507.822 356.291 507.904 356.2 508.02 356.2C508.118 356.2 508.168 356.299 508.168 356.496C508.168 356.644 508.159 356.776 508.143 356.891C508.028 357.483 507.789 358.043 507.427 358.569C507.065 359.079 506.662 359.49 506.218 359.803C505.774 360.099 505.371 360.247 505.009 360.247C504.664 360.247 504.425 360.107 504.294 359.827C504.179 359.531 504.121 359.21 504.121 358.865C504.121 358.125 504.327 356.792 504.738 354.868C505.133 352.993 505.346 351.693 505.379 350.969C505.396 350.673 505.371 350.468 505.305 350.352C505.256 350.221 505.124 350.155 504.911 350.155C504.401 350.155 503.85 350.492 503.257 351.167C502.682 351.841 502.164 352.672 501.703 353.659C501.242 354.629 500.938 355.518 500.79 356.324L500.395 358.47C500.297 358.898 500.033 359.301 499.606 359.679C499.178 360.058 498.8 360.247 498.471 360.247Z" fill="white"/>
</g>
<defs>
<clipPath id="clip0_240_618">
<rect width="672" height="672" fill="white"/>
</clipPath>
</defs>
</svg>
